<svg id="Layer_1" data-name="Layer 1" xmlns="http://www.w3.org/2000/svg" viewBox="0 0 320 197.78"><defs><style>.cls-1{fill:#e64c4c;}</style></defs><title>Poller_CIS</title><g id="BgeztA.tif"><path class="cls-1" d="M235.78,85c-1.81,0-4-2.09-4.5-4.29a4.29,4.29,0,0,1-.07-0.91c0-.1,0-0.2,0-0.29h0c-0.07-2.21,1.41-3.27,2.6-4.13,0.23-.16.45-0.32,0.67-0.5l0.33-.26,0.42,0.08,0.64,0.11a14.23,14.23,0,0,1,1.51.31c2.86,0.8,4.14,2.48,3.91,5.13A5.34,5.34,0,0,1,235.87,85h-0.09Zm-2.72-5.58c0,0.12,0,.24,0,0.37a2.85,2.85,0,0,0,0,.53c0.31,1.43,1.8,2.82,2.66,2.82h0A3.49,3.49,0,0,0,239.42,80c0.13-1.48-.26-2.53-2.56-3.17a13.13,13.13,0,0,0-1.31-.27l-0.27,0-0.4.29C233.69,77.69,233,78.23,233.06,79.38Z"/><path class="cls-1" d="M170.57,187.45a4.76,4.76,0,0,1-2.23-.56,5,5,0,0,1-2.56-3.16,5.15,5.15,0,0,1,.7-4.12l1.13-1.77,0.4-.07,0.81-.16a5.87,5.87,0,0,1,4.52.32l0.17,0.1,0.12,0.16,0.37,0.52c1,1.39,2.3,3.13,1.19,5.54a5.39,5.39,0,0,1-3.13,2.94A4.67,4.67,0,0,1,170.57,187.45Zm-1.82-7.91-0.69,1.08a3.31,3.31,0,0,0-.47,2.64,3.16,3.16,0,0,0,1.62,2,2.79,2.79,0,0,0,2.26.19,3.54,3.54,0,0,0,2-2c0.62-1.35.05-2.23-1-3.66l-0.27-.37a4.5,4.5,0,0,0-3,0Z"/><path class="cls-1" d="M158.86,97.88l-3.71-4.08,0.19-1c0.3-1.55.64-3.31,2.35-4.55,2.49-1.8,4.69-1.5,6.71.9a4.94,4.94,0,0,1-.31,6.63,5.25,5.25,0,0,1-3.22,1.44,6.75,6.75,0,0,0-1.4.35Zm-1.69-4.63,2.22,2.44c0.39-.11.78-0.18,1.16-0.25a3.63,3.63,0,0,0,2.19-.88,3.07,3.07,0,0,0,.25-4.15c-1.38-1.64-2.51-1.8-4.19-.59-1.11.8-1.34,2-1.61,3.39v0Z"/><path class="cls-1" d="M239.5,68l-0.58-.19-0.68-.21c-0.53-.16-1.05-0.32-1.57-0.51a5,5,0,0,1-3.36-5.72,5.4,5.4,0,0,1,5.12-4.06,5.66,5.66,0,0,1,4.83,4.7,9,9,0,0,1,0,1.29c0,0.17,0,.34,0,0.51v0.22l-0.09.19a6.55,6.55,0,0,1-2.11,2.29,8,8,0,0,0-1.17,1Zm-1.29-8.83a3.54,3.54,0,0,0-3.09,2.61,3.15,3.15,0,0,0,2.2,3.56c0.48,0.18,1,.33,1.45.47l0.16,0c0.32-.3.67-0.57,1-0.82a5.47,5.47,0,0,0,1.48-1.45c0-.11,0-0.22,0-0.33a7.46,7.46,0,0,0,0-1,3.81,3.81,0,0,0-3.08-3.06h-0.11Z"/><path class="cls-1" d="M236.28,133.58a5.42,5.42,0,0,1-2.9-.92,8.53,8.53,0,0,1-1-.8l-0.39-.33-0.13-.1-0.08-.14a5.19,5.19,0,0,1-.35-4,10.38,10.38,0,0,0,.18-1.19l0-.51,0.44-.24c0.31-.17.6-0.37,0.9-0.57a5,5,0,0,1,8.2,3.14,4.64,4.64,0,0,1-2.16,4.76A4.85,4.85,0,0,1,236.28,133.58Zm-3-3.38,0.29,0.25a7.2,7.2,0,0,0,.81.64,3,3,0,0,0,3.59.07,2.79,2.79,0,0,0,1.35-2.92,3.21,3.21,0,0,0-2.6-2.76c-1-.25-1.66.18-2.72,0.89l-0.61.4c0,0.31-.1.62-0.16,0.91A3.69,3.69,0,0,0,233.28,130.2Z"/><path class="cls-1" d="M123.64,132.53l-0.8-.6a2.42,2.42,0,0,0-1.13-.32l-0.5-.07a4.93,4.93,0,0,1,.51-9.81,4.81,4.81,0,0,1,5.08,4.28,3,3,0,0,0,.76,1.77l1.09,1.2-1.59.34a4.56,4.56,0,0,0-2.88,2.36Zm-1.72-8.94h-0.14a2.89,2.89,0,0,0-2.91,2.92,2.85,2.85,0,0,0,2.66,3.19l0.43,0.06a6.14,6.14,0,0,1,1.13.23,6.51,6.51,0,0,1,2.34-2.06,5.43,5.43,0,0,1-.48-1.67A2.91,2.91,0,0,0,121.92,123.6Z"/><path class="cls-1" d="M209.54,93.63a5,5,0,0,1-3.34-8.55,5,5,0,0,1,6.61-.35l0.79,0.56,0.62,0.43,0.1,0.25a8.09,8.09,0,0,1,0,5.1l-0.08.35-0.3.21-0.52.38a12.21,12.21,0,0,1-1.3.88A5.34,5.34,0,0,1,209.54,93.63Zm0.11-8.13a3,3,0,0,0-2.14.91,2.94,2.94,0,0,0-.34,4,2.88,2.88,0,0,0,4.08.87,10.71,10.71,0,0,0,1.11-.75l0.26-.19a6.3,6.3,0,0,0,.09-3.39l-0.15-.1c-0.29-.2-0.57-0.39-0.85-0.6A3.46,3.46,0,0,0,209.65,85.5Z"/><path class="cls-1" d="M189.15,58.11a5,5,0,0,1-3.34-1.45,4.7,4.7,0,0,1-.72-6.55l0.67-1,0.5-.72,0.35-.08c1.58-.38,3.37-0.81,5.2.1L192,48.53l0.46,0.64c0.23,0.32.46,0.64,0.67,1a4.86,4.86,0,0,1-.73,6.58A4.91,4.91,0,0,1,189.15,58.11Zm-1.76-8.05-0.09.13-0.65,1a2.88,2.88,0,0,0,.43,4.14,2.7,2.7,0,0,0,4.1,0,3,3,0,0,0,.41-4.16c-0.2-.31-0.41-0.6-0.63-0.9L190.77,50A5.43,5.43,0,0,0,187.38,50.06Z"/><path class="cls-1" d="M81,47.48a12.45,12.45,0,0,1-3.35-.53l-0.43-.12-0.18-.41a8,8,0,0,0-.59-1,4.75,4.75,0,0,1-1-3.55,4.93,4.93,0,0,1,3.93-4.25,4.79,4.79,0,0,1,5.2,2.12,4.67,4.67,0,0,1-.2,5.79c-0.21.29-.4,0.59-0.6,0.89l-0.5.77L83,47.24A7.86,7.86,0,0,1,81,47.48ZM78.6,45.26a8.34,8.34,0,0,0,3.58.26l0.08-.12c0.22-.34.43-0.68,0.67-1a2.84,2.84,0,0,0,.16-3.63,2.91,2.91,0,0,0-3.26-1.35,3.11,3.11,0,0,0-2.5,2.77,3,3,0,0,0,.75,2.21C78.26,44.67,78.44,45,78.6,45.26Z"/><path class="cls-1" d="M104.88,59.88c-0.41,0-.81,0-1.19,0l-0.74,0h-0.5l-0.55-.89c-0.19-.32-0.38-0.64-0.59-0.95-1.71-2.53-1.52-4.79.56-6.72,1.69-1.57,4.57-1.84,6.05-.58,2.57,2.18,3,4.53,1.23,7.16-0.17.25-.35,0.5-0.53,0.74l-0.36.49-0.18.1A6.32,6.32,0,0,1,104.88,59.88ZM103.52,58h0.26a6.54,6.54,0,0,0,3.22-.36l0.12-.16c0.16-.22.32-0.44,0.47-0.66,1.21-1.83,1-3.15-.88-4.71-0.69-.59-2.51-0.45-3.58.53-1.4,1.29-1.48,2.54-.28,4.3,0.23,0.34.44,0.68,0.65,1v0Z"/><path class="cls-1" d="M152.36,58.11L152.14,58a8.64,8.64,0,0,1-3.86-3.33l-0.18-.26,0-.48a7.26,7.26,0,0,1,.91-3.76,4.77,4.77,0,0,1,4.89-2.29A4.85,4.85,0,0,1,158,51.47a4.6,4.6,0,0,1-1.58,5.15,6.83,6.83,0,0,1-3.81,1.47ZM150,53.89a6.81,6.81,0,0,0,2.64,2.31,4.9,4.9,0,0,0,2.58-1,2.78,2.78,0,0,0,1-3.18,3,3,0,0,0-2.54-2.25,2.91,2.91,0,0,0-3.05,1.46A5.36,5.36,0,0,0,150,53.89Z"/><path class="cls-1" d="M178.84,21.27l-0.28-.2a9.48,9.48,0,0,1-3.17-3.39l-0.15-.28,0.05-.31c0-.21.07-0.42,0.1-0.63a11.55,11.55,0,0,1,.3-1.56,5,5,0,0,1,5.19-3.84,5.27,5.27,0,0,1,4.61,4.61,5.14,5.14,0,0,1-4.07,5.3,10.14,10.14,0,0,1-1.59.2l-0.63.05Zm-1.66-4.19a7.67,7.67,0,0,0,2.16,2.27l0.34,0a8.6,8.6,0,0,0,1.3-.16,3.27,3.27,0,0,0,2.64-3.33,3.42,3.42,0,0,0-2.92-2.91,3.09,3.09,0,0,0-3.23,2.49,10.14,10.14,0,0,0-.25,1.31Z"/><path class="cls-1" d="M163.29,19.55a14,14,0,0,1-2.55-.31l-0.53-.1L160,18.81c-0.15-.24-0.32-0.47-0.49-0.7-0.8-1.13-1.8-2.53-1.35-4.42a5.07,5.07,0,0,1,3.94-4,4.78,4.78,0,0,1,5,2,4.48,4.48,0,0,1,.22,5.42,10.9,10.9,0,0,1-.84,1.16l-0.35.45L166,18.9l-0.2.1A5.6,5.6,0,0,1,163.29,19.55Zm-2-2.1a6,6,0,0,0,3.47,0l0.24-.3a9.37,9.37,0,0,0,.7-1,2.65,2.65,0,0,0-.09-3.31,3,3,0,0,0-3.14-1.34A3.17,3.17,0,0,0,160,14.12c-0.24,1,.24,1.76,1.05,2.9Z"/><path class="cls-1" d="M191.82,103.92h-0.16c-3.22-.28-5-1.63-5.57-4.14a4.7,4.7,0,0,1,2.38-5.29,4.83,4.83,0,0,1,4.46-.23,4.93,4.93,0,0,1,2.83,3.57c0.08,0.43.16,0.87,0.23,1.31l0.15,0.87-0.14.28a6.29,6.29,0,0,1-4,3.6Zm-0.91-8.24a3.12,3.12,0,0,0-3,3.71c0.24,1.15.88,2.36,3.74,2.65a4.29,4.29,0,0,0,2.55-2.33l0-.25c-0.07-.43-0.15-0.85-0.23-1.28A3.11,3.11,0,0,0,190.92,95.67Z"/><path class="cls-1" d="M106.75,110a4.62,4.62,0,0,1-2-.5,5.12,5.12,0,0,1-2.68-2.9,4.94,4.94,0,0,1,.33-3.85,4.77,4.77,0,0,1,2.81-2.45,4.94,4.94,0,0,1,3.85.35c0.49,0.25,1,.54,1.42.82l1,0.58,0.14,0.77a7.5,7.5,0,0,1-.25,4.85l-0.1.2-0.37.28A7,7,0,0,1,106.75,110Zm-0.08-8.08a2.92,2.92,0,0,0-2.64,1.65,3.12,3.12,0,0,0-.24,2.42,3.23,3.23,0,0,0,1.73,1.83c1.54,0.75,2.55.09,4.19-1.15h0a6.06,6.06,0,0,0,0-3.45l-0.26-.15c-0.44-.26-0.87-0.53-1.32-0.76A3.2,3.2,0,0,0,106.67,101.91Z"/><path class="cls-1" d="M138.18,18.76L138,17.94a5.53,5.53,0,0,0-.8-1.58L136.92,16a5.13,5.13,0,0,1,1-6.61,4.92,4.92,0,0,1,6.46.31,5,5,0,0,1,.56,6.59c-0.18.26-.33,0.53-0.49,0.8l-0.47.79Zm2.83-8.6a3.06,3.06,0,0,0-1.9.66A3.26,3.26,0,0,0,138.5,15l0.24,0.37a10.08,10.08,0,0,1,.76,1.32l3.39-.54c0.18-.31.36-0.62,0.56-0.91A3.12,3.12,0,0,0,141,10.16Z"/><path class="cls-1" d="M152,143.71a3.53,3.53,0,0,1-2.25-.86l-0.43-.36a2.68,2.68,0,0,0-1.41-.82l-0.78-.06-0.07-.78a7.88,7.88,0,0,1,.91-5.35l0.09-.14,0.14-.1c2.17-1.57,4-2.09,5.49-1.59s2.43,1.76,3.09,3.86a4.33,4.33,0,0,1-1.74,4.94A5.34,5.34,0,0,1,152,143.71ZM148.89,140a5.36,5.36,0,0,1,1.68,1.1l0.38,0.32c1,0.78,1.72.49,3-.46a2.51,2.51,0,0,0,1.06-2.87c-0.47-1.5-1.11-2.39-1.9-2.65s-2.13.14-3.66,1.23A5.51,5.51,0,0,0,148.89,140Z"/><path class="cls-1" d="M89.93,40.14a5.28,5.28,0,0,1-4.8-3.87,4.86,4.86,0,0,1,2.93-5.73A11.59,11.59,0,0,1,89.68,30l0.67-.21,0.35-.12L91,29.78a6.91,6.91,0,0,1,3.88,4.49l0,0.16v0.17c-0.31,4.12-2.65,5.26-4.56,5.5A3.71,3.71,0,0,1,89.93,40.14Zm0.65-8.51-0.35.11a10.09,10.09,0,0,0-1.37.49,3,3,0,0,0-1.93,3.56,3.4,3.4,0,0,0,3.24,2.47c1.22-.15,2.64-0.71,2.91-3.62A5,5,0,0,0,90.57,31.63Z"/><path class="cls-1" d="M248.74,114.24a6,6,0,0,1-2.07-.39,9.08,9.08,0,0,1-1.58-.82l-0.6-.35-0.35-.19-0.24-.9c-0.4-1.43-.85-3,0.11-4.74l0.15-.2,0.2-.2a5.64,5.64,0,0,1,3.28-2,4.69,4.69,0,0,1,5.11,2.25,4.81,4.81,0,0,1-.43,5.8A4.53,4.53,0,0,1,248.74,114.24Zm-3-3,0.31,0.19a7.55,7.55,0,0,0,1.25.66,2.9,2.9,0,0,0,3.57-.78,3,3,0,0,0,.25-3.68,2.89,2.89,0,0,0-3.25-1.34,4,4,0,0,0-2.21,1.46l-0.1.1c-0.5,1-.21,2,0.12,3.23Z"/><path class="cls-1" d="M105.14,77.22a4.73,4.73,0,0,1-3.68-1.85,4.51,4.51,0,0,1-.49-5.61c0.26-.42.54-0.83,0.83-1.24l0.55-.82,0.31-.1a7,7,0,0,1,5.42.43l0.17,0.09,0.12,0.15c1.51,1.85,2.1,3.79,1.67,5.47a4.63,4.63,0,0,1-3,3.09A5.33,5.33,0,0,1,105.14,77.22Zm-1.61-7.93-0.19.28c-0.27.39-.53,0.78-0.78,1.18a2.67,2.67,0,0,0,.33,3.42,3.16,3.16,0,0,0,5.36-.91,4.48,4.48,0,0,0-1.18-3.66A5,5,0,0,0,103.53,69.29Z"/><path class="cls-1" d="M225.32,47.56a3.73,3.73,0,0,1-2.9-1.21l-0.05-.06h0l-0.57-.7a4.71,4.71,0,0,1,0-6.07,4.57,4.57,0,0,1,5.16-1.8,5.1,5.1,0,0,1,3.75,4.73,5.46,5.46,0,0,1-1.6,3.85c-0.17.21-.33,0.42-0.48,0.63l-0.27.38h-0.46a10.57,10.57,0,0,0-1.1.11A10.93,10.93,0,0,1,225.32,47.56Zm-2.08-3.13,0.57,0.68c0.66,0.7,1.42.64,2.7,0.48l0.84-.1,0.26-.33a3.86,3.86,0,0,0,1.2-2.57,3.26,3.26,0,0,0-2.46-3.09,2.69,2.69,0,0,0-3.12,1.17A2.81,2.81,0,0,0,223.24,44.43Z"/><path class="cls-1" d="M189.19,172.32H189a5.53,5.53,0,0,1-4.91-4.58,5.29,5.29,0,0,1,4.23-5.39,4.93,4.93,0,0,1,1.06-.1h0.49c2.08,0.16,3,1.63,3.75,2.81,0.16,0.26.33,0.52,0.51,0.77l0.21,0.29-0.07.72c0,0.32-.05.64-0.11,1A5.29,5.29,0,0,1,189.19,172.32Zm0.57-8.22H189.4a3.39,3.39,0,0,0-3.46,3.44,3.68,3.68,0,0,0,3.14,2.9,3.4,3.4,0,0,0,3.21-3c0-.26.07-0.53,0.09-0.79v-0.06L192,166C191.28,164.87,190.81,164.2,189.76,164.1Z"/><path class="cls-1" d="M202.75,81.3l-0.37,0a5.06,5.06,0,0,1-4.69-4.67,4.67,4.67,0,0,1,3.92-5.24c0.45-.1.91-0.16,1.37-0.22l0.58-.08,0.26,0,0.24,0.1a7,7,0,0,1,2.58,2.19,9.33,9.33,0,0,0,1.1,1.18l0.59,0.5-0.37.67a5.91,5.91,0,0,0-.65,1.67A5.09,5.09,0,0,1,202.75,81.3ZM203.54,73l-0.33,0c-0.41.05-.81,0.1-1.21,0.19a2.84,2.84,0,0,0-2.46,3.33,3.23,3.23,0,0,0,3,2.91A3.15,3.15,0,0,0,205.47,77a7.41,7.41,0,0,1,.51-1.54c-0.28-.29-0.53-0.6-0.78-0.9A6.09,6.09,0,0,0,203.54,73Z"/><path class="cls-1" d="M69.89,91.46a3.3,3.3,0,0,1-2.15-.88c-2.42-2-3.14-4.7-1.88-7,0.28-.5.59-1,0.89-1.41l0.39-.59,0.25-.39,0.84-.06a13.8,13.8,0,0,1,4.49.17l0.35,0.09,0.2,0.31,0.37,0.56c0.28,0.42.56,0.83,0.81,1.27a4.52,4.52,0,0,1-1.1,6.19c-0.19.13-.39,0.28-0.59,0.43A5,5,0,0,1,69.89,91.46ZM68.46,83l-0.15.23c-0.28.42-.57,0.84-0.81,1.29-0.81,1.45-.27,3.18,1.45,4.62,0.91,0.76,1.44.49,2.7-.47,0.23-.18.46-0.35,0.68-0.5a2.7,2.7,0,0,0,.53-3.7c-0.23-.4-0.49-0.78-0.75-1.16l-0.18-.26A13.2,13.2,0,0,0,68.46,83Z"/><path class="cls-1" d="M88.92,106.59h-0.1A4.89,4.89,0,0,1,84,102a6,6,0,0,1,0-.83,1.46,1.46,0,0,0-.1-1l-0.55-.78,0.79-.53c0.4-.27.78-0.58,1.19-0.92a9.28,9.28,0,0,1,2.77-1.77L88.47,96l0.32,0.12c2.35,0.89,5.27,2,4.91,5.89A4.91,4.91,0,0,1,88.92,106.59Zm-3.06-6.64a4.21,4.21,0,0,1,0,1.33,4.12,4.12,0,0,0,0,.57,3,3,0,0,0,3,2.88h0.06a3,3,0,0,0,2.93-2.84c0.21-2.26-1.07-3-3.37-3.85a9,9,0,0,0-1.91,1.33Z"/><path class="cls-1" d="M142,88.91a5,5,0,0,1-4.89-4,4.92,4.92,0,0,1,3.3-5.61,9.19,9.19,0,0,1,2.07-.32l0.82-.07,0.39,0,0.56,0.45a6.93,6.93,0,0,1,2.9,3.84l0,0.16,0,0.17c-0.6,4.33-3,5.34-4.94,5.42H142Zm1.12-8.11-0.5,0a7.73,7.73,0,0,0-1.66.24,3.06,3.06,0,0,0-2,3.44,3.18,3.18,0,0,0,3.2,2.51c1.22-.05,2.67-0.51,3.15-3.64A5.43,5.43,0,0,0,143.1,80.8Z"/><path class="cls-1" d="M129,24.9l-0.24-.09a7,7,0,0,1-4-3.13l-0.1-.19V21.26c0-1.66-.11-4.44,2.79-5.88a5,5,0,0,1,4-.46,5,5,0,0,1,2.76,3,4.87,4.87,0,0,1,0,3.89,4.94,4.94,0,0,1-2.89,2.68,7,7,0,0,1-1.45.32l-0.55.09ZM126.46,21a5.22,5.22,0,0,0,2.71,2l0.36-.05a5.54,5.54,0,0,0,1.08-.22A3.09,3.09,0,0,0,132.44,21a3,3,0,0,0,0-2.41,3.29,3.29,0,0,0-1.69-2,3.21,3.21,0,0,0-2.51.38C126.72,17.79,126.43,19,126.46,21Z"/><path class="cls-1" d="M152.07,19.81a3.88,3.88,0,0,1-3-1.19L149,18.54c-2.11-2.73-1.48-5-.57-6.4a4.76,4.76,0,0,1,3.2-2.21A4.92,4.92,0,0,1,155.56,11a4.9,4.9,0,0,1,.72,7.15c-0.23.28-.48,0.54-0.73,0.8l-0.57.61h-0.39c-0.35,0-.71.06-1.07,0.1A11.53,11.53,0,0,1,152.07,19.81Zm-1.58-2.45c0.71,0.71,1.5.65,2.8,0.48l0.85-.09,0.07-.07c0.22-.23.45-0.47,0.65-0.71a3.16,3.16,0,0,0,.77-2.36A3.32,3.32,0,0,0,152,11.78,2.88,2.88,0,0,0,150,13.15C149.18,14.49,149.32,15.83,150.48,17.36Z"/><path class="cls-1" d="M203.45,27.38a13.58,13.58,0,0,1-3.69-.65l-0.36-.1-0.19-.33c-0.12-.2-0.24-0.4-0.37-0.6a10.47,10.47,0,0,1-.84-1.53,4.89,4.89,0,0,1,1.81-6,4.92,4.92,0,0,1,7.12,6.32,9.65,9.65,0,0,1-1.14,1.73c-0.17.22-.33,0.43-0.49,0.66l-0.22.31-0.38.07A7.25,7.25,0,0,1,203.45,27.38ZM200.62,25a9.22,9.22,0,0,0,3.39.45l0.3-.39a8.19,8.19,0,0,0,.94-1.39,3.06,3.06,0,0,0-4.42-4,3,3,0,0,0-1.11,3.71,9,9,0,0,0,.7,1.26Z"/><path class="cls-1" d="M214,143.15a5.57,5.57,0,0,1-3.23-1.06c-0.17-.13-0.34-0.27-0.51-0.41l-0.34-.32c-1.24-1.6-1.09-3.36-1-4.92l0.09-1.17,0.63-.18a2.56,2.56,0,0,0,.88-0.6,4,4,0,0,1,1.83-1.06,5,5,0,0,1,4.8,8.52A4.66,4.66,0,0,1,214,143.15Zm-2.66-3,0.13,0.11c0.13,0.11.25,0.21,0.38,0.31a3.08,3.08,0,0,0,4.67-3.9,3.29,3.29,0,0,0-3.75-1.42,2.39,2.39,0,0,0-1,.64,5.55,5.55,0,0,1-1,.73C210.68,138,210.58,139.15,211.31,140.15Z"/><path class="cls-1" d="M131.88,100.21a4.86,4.86,0,0,1-3.05-1.13c-1.22-1-2.47-2.77-1.46-5.82a4.83,4.83,0,0,1,.69-1.24c0.09-.13.19-0.26,0.27-0.4l0.11-.15c1.4-1.53,3.08-1.28,4.42-1.09,0.35,0.05.7,0.1,1,.12l0.37,0,0.26,0.27L135,91.25A4.86,4.86,0,0,1,136.7,94c0.15,1,.62,3.85-2.07,5.42A5.44,5.44,0,0,1,131.88,100.21Zm-2-7.53-0.27.41a3.38,3.38,0,0,0-.44.76c-0.73,2.21.14,3.21,0.85,3.78a3,3,0,0,0,3.7.17c1.11-.65,1.46-1.7,1.17-3.51a3.29,3.29,0,0,0-1.19-1.7l-0.25-.25-0.84-.11C131.31,92.05,130.55,92,129.86,92.68Z"/><path class="cls-1" d="M246.85,125.22a4.75,4.75,0,0,1-2.37-.67,13.52,13.52,0,0,1-1.27-.87l-0.51-.37-0.31-.22-0.07-.37c0-.25-0.11-0.51-0.16-0.76a6,6,0,0,1,.22-4.47l0.11-.21,0.2-.13c0.25-.16.49-0.34,0.74-0.52,1.1-.8,2.48-1.8,4.38-1.3a5,5,0,0,1,3.94,4A4.53,4.53,0,0,1,250,124,5.17,5.17,0,0,1,246.85,125.22ZM244.07,122l0.25,0.18a12.06,12.06,0,0,0,1.09.75,2.87,2.87,0,0,0,3.49-.41,2.7,2.7,0,0,0,1-2.87,3.15,3.15,0,0,0-2.59-2.52c-1-.26-1.71.21-2.8,1l-0.61.43a4.67,4.67,0,0,0,.06,3Z"/><path class="cls-1" d="M214.71,36.41c-0.56,0-1.1-.05-1.62-0.1l-0.77-.07-0.47,0-0.25-.4c-0.17-.27-0.36-0.52-0.56-0.77a5,5,0,0,1-1.38-3.53A4.85,4.85,0,0,1,213,26.82a4.53,4.53,0,0,1,5.39,1.62,4.94,4.94,0,0,1,.31,5.8,6.72,6.72,0,0,1-.69,1l-0.27.34-0.12.16-0.18.1A5.64,5.64,0,0,1,214.71,36.41Zm-1.81-2,0.36,0a6,6,0,0,0,3.13-.22l0.18-.22a5.22,5.22,0,0,0,.51-0.69,3.07,3.07,0,0,0-.15-3.73,2.66,2.66,0,0,0-3.29-1,3,3,0,0,0-2.13,3.06,3.28,3.28,0,0,0,1,2.27Z"/><path class="cls-1" d="M246.63,102.84a5.6,5.6,0,0,1-1.43-.19,6.72,6.72,0,0,1-2.71-1.59l-0.19-.16-0.08-.24a9.91,9.91,0,0,1-.35-5.13l0.07-.39,0.33-.22c0.24-.16.48-0.34,0.71-0.51a7.52,7.52,0,0,1,2-1.17A4.59,4.59,0,0,1,250.53,95a4.65,4.65,0,0,1,.1,5.64A4.77,4.77,0,0,1,246.63,102.84Zm-2.73-3a4.63,4.63,0,0,0,1.77,1,2.92,2.92,0,0,0,3.42-1.29,2.83,2.83,0,0,0-.08-3.49A2.77,2.77,0,0,0,245.58,95a6.12,6.12,0,0,0-1.47.91l-0.46.34A7.88,7.88,0,0,0,243.9,99.8Z"/><path class="cls-1" d="M111.52,119.35a4.79,4.79,0,0,1-3.68-1.72,5.18,5.18,0,0,1,0-6.47,4.69,4.69,0,0,1,6.49-.9c0.34,0.22.67,0.47,1,.71l0.57,0.42,0.1,0.16a5.85,5.85,0,0,1,.36,4.52c-0.06.28-.11,0.56-0.16,0.84l-0.07.4-0.74.49-1,.67A5.36,5.36,0,0,1,111.52,119.35Zm0-8.14a3,3,0,0,0-2.24,1.18,3.27,3.27,0,0,0,0,4,3.11,3.11,0,0,0,4.15.48l1-.65,0.07,0,0.1-.5a4.45,4.45,0,0,0,0-3l-0.27-.2c-0.29-.22-0.59-0.44-0.89-0.64A3.39,3.39,0,0,0,111.53,111.21Z"/><path class="cls-1" d="M134.37,127.48a4.88,4.88,0,0,1-3.75-1.75,4.77,4.77,0,0,1-.08-6.26,5,5,0,0,1,6.58-1,9.23,9.23,0,0,1,.93.65l0.36,0.27,0.16,0.12,0.1,0.17a7.7,7.7,0,0,1,.56,5l-0.06.52-0.32.24-0.47.36c-0.36.28-.73,0.56-1.14,0.82A5.38,5.38,0,0,1,134.37,127.48Zm0-8a3,3,0,0,0-2.35,1.12,2.91,2.91,0,0,0,.06,3.87,3.14,3.14,0,0,0,4.19.53c0.34-.22.67-0.46,1-0.71l0.18-.13a5.85,5.85,0,0,0-.27-3.46l-0.22-.17a7.75,7.75,0,0,0-.74-0.52A3.63,3.63,0,0,0,134.33,119.53Z"/><path class="cls-1" d="M113.64,24.19l-0.26-.12a7.93,7.93,0,0,1-3.89-3.6l-0.17-.33,0.1-.36c0.09-.33.17-0.67,0.24-1,0.35-1.59.78-3.56,3.24-4.33a4.89,4.89,0,0,1,6.36,3.06,4.83,4.83,0,0,1-3.13,6.24,8.38,8.38,0,0,1-1.58.32l-0.62.09Zm-2.33-4.27a6,6,0,0,0,2.59,2.34l0.4-.05a6.83,6.83,0,0,0,1.24-.24,2.94,2.94,0,0,0,1.95-3.88,3,3,0,0,0-4-1.86c-1.36.42-1.62,1.35-2,2.95C111.43,19.42,111.37,19.66,111.31,19.91Z"/><path class="cls-1" d="M141.11,70.14a5.15,5.15,0,0,1-.6,0,4.72,4.72,0,0,1-4.32-4.51,4.9,4.9,0,0,1,3.94-5.32,11.41,11.41,0,0,1,1.41-.16l0.57,0,0.23,0,0.22,0.09a6.38,6.38,0,0,1,2.56,2.23,9.2,9.2,0,0,0,.94,1.09l0.41,0.38-0.7,2.58A4.78,4.78,0,0,1,141.11,70.14ZM142,61.94l-0.36,0a9.78,9.78,0,0,0-1.18.13A3.05,3.05,0,0,0,138,65.49a2.87,2.87,0,0,0,2.67,2.76A3,3,0,0,0,144,65.93l0.41-1.52c-0.27-.29-0.51-0.6-0.74-0.9A5.25,5.25,0,0,0,142,61.94Z"/><path class="cls-1" d="M181.49,187.44a4.76,4.76,0,0,1-3.93-2.21,4.94,4.94,0,0,1,0-5.59,7.34,7.34,0,0,1,.79-1.06l0.32-.39,0.19-.24,0.3-.08a8.37,8.37,0,0,1,5.19,0l0.32,0.11,0.17,0.3c0.17,0.28.36,0.56,0.55,0.83,0.77,1.12,1.74,2.51,1.1,4.51a5.08,5.08,0,0,1-4.38,3.79A4.57,4.57,0,0,1,181.49,187.44Zm-1.6-7.86-0.16.19a5.92,5.92,0,0,0-.6.79,3.08,3.08,0,0,0,0,3.6,2.9,2.9,0,0,0,2.74,1.39,3.25,3.25,0,0,0,2.83-2.51c0.34-1.07-.08-1.76-0.86-2.88-0.15-.21-0.29-0.42-0.43-0.64A6.6,6.6,0,0,0,179.9,179.58Z"/><path class="cls-1" d="M70.12,61.95a9.55,9.55,0,0,1-2.57-.38l-0.41-.11L67,61.07c-0.08-.17-0.16-0.34-0.23-0.52a5.14,5.14,0,0,0-.43-0.85c-1.53-2.24-1.35-4.61.47-6.35A5,5,0,0,1,73,53a4.74,4.74,0,0,1,1.54,6.26,9.13,9.13,0,0,1-.91,1.34l-0.38.5-0.15.21-0.23.1A6.88,6.88,0,0,1,70.12,61.95Zm-1.65-2.07a5.75,5.75,0,0,0,3.47-.12l0.26-.34a7.59,7.59,0,0,0,.74-1.06,2.87,2.87,0,0,0-1-3.87,3.1,3.1,0,0,0-3.91.23,2.86,2.86,0,0,0-.22,3.94,6.64,6.64,0,0,1,.6,1.17Z"/><path class="cls-1" d="M183.16,33.07H183c-4-.36-5.16-2.38-5.44-4a4.83,4.83,0,0,1,2.78-5.52,4.38,4.38,0,0,1,4.29.05A6.48,6.48,0,0,1,187.51,29v0.25l-0.12.23c-0.8,1.53-1.91,3.16-4.12,3.57Zm-0.65-8.21a2.89,2.89,0,0,0-1.3.33,3,3,0,0,0-1.78,3.54c0.16,0.91.7,2.15,3.63,2.45a4,4,0,0,0,2.57-2.34,4.54,4.54,0,0,0-1.9-3.65A2.38,2.38,0,0,0,182.51,24.86Z"/><path class="cls-1" d="M101.12,100.2a5,5,0,0,1-2.47-.67,4.86,4.86,0,0,1-2.4-3.12,5.07,5.07,0,0,1,.83-4l1.17-1.71,0.39-.06a20.5,20.5,0,0,1,4.78-.09l0.5,0L104.17,91c0.18,0.32.38,0.63,0.59,0.93,0.89,1.35,2,3,.85,5.31a5.27,5.27,0,0,1-3.14,2.76A4.63,4.63,0,0,1,101.12,100.2Zm-1.79-7.8-0.71,1A3.24,3.24,0,0,0,98.06,96a3,3,0,0,0,1.51,1.92,3,3,0,0,0,2.35.31,3.43,3.43,0,0,0,2-1.81c0.63-1.26.16-2.08-.74-3.43l-0.4-.61A18.58,18.58,0,0,0,99.33,92.4Z"/><path class="cls-1" d="M118.13,100.14a5,5,0,0,1-3-1,5,5,0,0,1-1.29-6.35c0.26-.46.55-0.89,0.83-1.31L115,91l0.25-.38,0.59,0a16,16,0,0,1,4.74.11l0.35,0.07L121.14,91l0.36,0.47c0.28,0.37.56,0.74,0.81,1.13A4.77,4.77,0,0,1,121.4,99,5,5,0,0,1,118.13,100.14Zm-1.83-7.76-0.12.18c-0.27.4-.53,0.77-0.74,1.16a3.1,3.1,0,0,0,.79,4,3.34,3.34,0,0,0,3.93-.1,2.91,2.91,0,0,0,.56-4c-0.21-.34-0.46-0.66-0.71-1l-0.16-.21A14.54,14.54,0,0,0,116.3,92.38Z"/><path class="cls-1" d="M214.63,154.69a4.84,4.84,0,0,1-.63,0,5,5,0,0,1-4.32-4.55,4.75,4.75,0,0,1,4-5.25,9.12,9.12,0,0,1,1.28-.15l0.51,0,0.23,0,0.22,0.09a7,7,0,0,1,3.71,3.68l0.14,0.28-0.06.31c0,0.19-.08.38-0.11,0.58-0.09.46-.17,0.92-0.3,1.37A4.91,4.91,0,0,1,214.63,154.69Zm0.79-8.17-0.32,0a7.43,7.43,0,0,0-1,.12,2.88,2.88,0,0,0-2.53,3.31,3.09,3.09,0,0,0,2.7,2.82,3,3,0,0,0,3.26-2.38c0.11-.39.19-0.8,0.26-1.2l0.05-.29A5.17,5.17,0,0,0,215.42,146.52Z"/><path class="cls-1" d="M171.87,74.37a12.91,12.91,0,0,1-4-.63l-0.29-.1-0.18-.25L167,72.94a5.43,5.43,0,0,1-1.48-4,4.78,4.78,0,0,1,3.28-4.3,4.72,4.72,0,0,1,5.44,1.46,4.79,4.79,0,0,1,.51,5.58c-0.3.55-.64,1.06-1,1.56l-0.42.65-0.26.41-0.48,0Zm-3.18-2.31a11.43,11.43,0,0,0,3.39.44l0.17-.26c0.32-.48.62-0.94,0.88-1.41a2.92,2.92,0,0,0-.31-3.52,2.84,2.84,0,0,0-3.39-.88,2.9,2.9,0,0,0-2,2.73c-0.1,1,.36,1.65,1.12,2.66Z"/><path class="cls-1" d="M240.33,143.18a4.81,4.81,0,0,1-2.41-.65c-0.48-.28-0.94-0.59-1.41-0.91l-0.6-.4-0.34-.22-0.07-.4a9.39,9.39,0,0,1,.32-5l0.1-.26,0.22-.16,0.55-.43a9.25,9.25,0,0,1,1.46-1,5.1,5.1,0,0,1,6,1.39,5,5,0,0,1-.21,6.46A4.83,4.83,0,0,1,240.33,143.18Zm-3-3.28,0.27,0.19c0.42,0.29.85,0.58,1.29,0.84a3,3,0,0,0,3.68-.58,3.11,3.11,0,0,0,.15-4,3.23,3.23,0,0,0-3.66-.91,7.78,7.78,0,0,0-1.17.83l-0.37.29A7.5,7.5,0,0,0,237.29,139.9Z"/><path class="cls-1" d="M191.51,48.82h-0.66l-0.44-1.23,0.52-.43,0.58,0.68V47l0,0.92,0.84-.3-0.84.31,0.6,0.7-0.26.24h-0.37Zm0.08-.86,0.53,0.64-0.59-.71h0Zm-0.07-.08h0Z"/><path class="cls-1" d="M240.63,119.19H188.1c-3.68,0-4.48-.81-4.48-4.55V102.89q0-18.27,0-36.54a6,6,0,0,0-2-4.7c-1-1-2-2-3-2.94-1.25-1.27-2.54-2.58-3.86-3.78a6.74,6.74,0,0,1-2.28-5.34c0-7,0-14.19,0-21.34a6.94,6.94,0,0,1,2-5A18.26,18.26,0,0,1,175.9,22a13,13,0,0,0,1.37-1.34,9.88,9.88,0,0,1-1.46-1.5,13.92,13.92,0,0,0-1.21,1.22A14.84,14.84,0,0,1,173,22c-1.7,1.36-2.44,3.18-2.43,5.91,0,7.54,0,15,0,23.28a4.67,4.67,0,0,0,1.28,3.51c0.68,0.69,1.35,1.4,2,2.11a64.06,64.06,0,0,0,4.81,4.75,8.38,8.38,0,0,1,2.93,7c-0.07,15.64-.05,31.56,0,46.53,0,2.24.48,3.81,1.47,4.78s2.58,1.47,4.93,1.46c7.23,0,14.45,0,21.68,0h14.18c4.44,0,8.89,0,13.33-.07l4.39,0a7.28,7.28,0,0,1-.14-2Z"/><path class="cls-1" d="M187.86,121.55c-2.33,0-4-.5-5-1.52s-1.53-2.64-1.54-4.95c0-15,0-31,0-46.53a8.17,8.17,0,0,0-2.85-6.83,63.93,63.93,0,0,1-4.83-4.77c-0.69-.73-1.35-1.43-2-2.11a4.9,4.9,0,0,1-1.35-3.67c0-7.92,0-15.65,0-23.28,0-2.81.76-4.69,2.51-6.1a14.69,14.69,0,0,0,1.62-1.58A14.22,14.22,0,0,1,175.66,19l0.19-.16L176,19a9.66,9.66,0,0,0,1.42,1.46l0.18,0.15-0.15.18a13.26,13.26,0,0,1-1.39,1.37,18.21,18.21,0,0,0-1.35,1.3,6.72,6.72,0,0,0-1.9,4.8c0,7.16,0,14.34,0,21.34A6.52,6.52,0,0,0,175,54.76c1.3,1.2,2.58,2.49,3.81,3.74l0.05,0.05c1,1,2,2,3,2.94a6.23,6.23,0,0,1,2,4.87c0,12,0,24.29,0,36.13v12.14c0,3.63.68,4.32,4.25,4.32h52.53l0.78,0h0.24l0,0.24a7.16,7.16,0,0,0,.13,1.92l0.05,0.27-4.67,0c-4.1,0-8.74.07-13.34,0.07H209.63c-7.72,0-14.68,0-21.68,0h-0.09ZM175.78,19.47c-0.34.31-.67,0.67-1,1a14.9,14.9,0,0,1-1.67,1.63c-1.63,1.31-2.36,3.08-2.34,5.73,0,7.63,0,15.37,0,23.29A4.46,4.46,0,0,0,172,54.5c0.67,0.68,1.33,1.38,2,2.08a64.23,64.23,0,0,0,4.83,4.77,8.59,8.59,0,0,1,3,7.19c-0.07,15.57-.05,31.52,0,46.53,0,2.18.46,3.69,1.4,4.62s2.47,1.39,4.67,1.39H188c7,0,14,0,21.68,0h14.18c4.6,0,9.24,0,13.33-.07l4.11,0a7.48,7.48,0,0,1-.11-1.53H188.1c-3.83,0-4.71-.9-4.71-4.78V102.48c0-11.84,0-24.09,0-36.13a5.79,5.79,0,0,0-1.89-4.53c-1-1-2-2-2.94-2.93l-0.07-.08c-1.23-1.25-2.5-2.54-3.8-3.72a7,7,0,0,1-2.36-5.51c0-7,0-14.18,0-21.34a7.16,7.16,0,0,1,2-5.11,18.7,18.7,0,0,1,1.39-1.33,15.09,15.09,0,0,0,1.19-1.14A10,10,0,0,1,175.78,19.47Z"/><path class="cls-1" d="M191.55,129.62h1.54c6.57,0,13.36.06,20,0,2.17,0,4.34,0,6.5,0,3.65,0,7.41.08,11.12-.1a7.83,7.83,0,0,1,.18-2.08c-0.39,0-.79,0-1.18,0q-18.15,0-36.3,0c-0.38,0-.76,0-1.15,0l-1,0a6.08,6.08,0,0,0-1.54.16c-2.66.7-4.39,2.67-6.23,4.75-0.7.8-1.42,1.62-2.21,2.38a3,3,0,0,0-.63,2.36q0,5.67,0,11.33,0,4.05,0,8.1c0,10.12.06,20.6,0.06,20.6l2,0s0.05-1.15.05-1.72c0-19.14,0-17.42,0-36.56,0-1.07,0-3.31,1.71-4.6a22.49,22.49,0,0,0,2.47-2.27l0.8-.8A5.19,5.19,0,0,1,191.55,129.62Z"/><path class="cls-1" d="M180.5,177.32v-0.24s0-10.49-.06-20.6q0-4.05,0-8.1,0-5.67,0-11.33c0-1.34.19-2,.7-2.53,0.77-.75,1.49-1.56,2.18-2.35,1.88-2.13,3.63-4.13,6.36-4.84a6.26,6.26,0,0,1,1.6-.17l1,0,1.16,0c14,0,25.57,0,36.31,0,0.4,0,.8,0,1.19,0l0.27,0,0,0.26a7.65,7.65,0,0,0-.17,2l0,0.24h-0.24c-3.77.18-7.68,0.14-11.13,0.1H219c-1.94,0-3.94,0-5.91,0-6.75.06-13.81,0-20,0h-1.5l0-.23v0.23a5,5,0,0,0-3.67,1.41l-0.68.68-0.12.12a22.94,22.94,0,0,1-2.5,2.3c-1.62,1.22-1.62,3.37-1.62,4.41v0.8c0,17,0,17,0,32v3.74c0,0.57-.05,1.69-0.06,1.73v0.22Zm10.79-49.7a5.82,5.82,0,0,0-1.48.16c-2.59.68-4.3,2.62-6.11,4.68-0.71.81-1.44,1.63-2.22,2.39a2.82,2.82,0,0,0-.56,2.19q0,5.67,0,11.33,0,4.05,0,8.1c0,9.23,0,18.76.05,20.37l1.53,0c0-.36,0-1.08,0-1.49v-3.74c0-15,0-15,0-32v-0.8c0-1.11,0-3.42,1.8-4.78a22.32,22.32,0,0,0,2.44-2.25l0.12-.12,0.68-.69a5.4,5.4,0,0,1,4-1.54h1.54c6.23,0,13.29.06,20,0,2,0,4,0,5.92,0h0.59c3.37,0,7.19.08,10.87-.09a7.92,7.92,0,0,1,.15-1.64l-0.9,0c-10.73,0-22.27,0-36.3,0l-1.16,0Z"/><path class="cls-1" d="M191.39,83.65a3,3,0,0,0,.88,2.45c1.92,1.89,3.82,3.81,5.72,5.72s3.61,3.65,5.44,5.45A5.72,5.72,0,0,0,207.62,99h0q13,0,26,0h7.72a10.36,10.36,0,0,1-.1-1.92l-6.8,0c-8.17,0-16.62-.07-24.94,0h-0.06a7.33,7.33,0,0,1-5.85-2.4l-0.11-.12c-2.51-2.71-5.1-5.51-7.84-8a5.82,5.82,0,0,1-2.21-4.8c0.07-4.44.08-9.31,0-15.31a5,5,0,0,1,1.7-4c1-.94,2-1.92,2.93-2.9s2.06-2.09,3.13-3.1a6.46,6.46,0,0,0,2.11-5.07c0-3.49,0-7,0-10.46q0-4.48,0-9c0-1.25-.06-2.5-0.11-3.75V27.81a10.61,10.61,0,0,1-1.85-.23l0,4.75c0,5.91-.07,12,0,18a6.76,6.76,0,0,1-2.3,5.3c-1.28,1.19-2.54,2.45-3.77,3.68-1,1-2,2-3.08,3a2.44,2.44,0,0,0-.8,2C191.42,71.26,191.43,77.55,191.39,83.65Z"/><path class="cls-1" d="M207.65,99.26a6,6,0,0,1-4.38-1.82c-1.85-1.82-3.68-3.66-5.44-5.45l-0.1-.1c-1.83-1.85-3.73-3.77-5.62-5.62a3.23,3.23,0,0,1-1-2.62h0c0-6.13,0-12.42,0-19.24a2.68,2.68,0,0,1,.87-2.2c1.05-1,2.08-2,3.08-3,1.25-1.25,2.51-2.5,3.77-3.68a6.54,6.54,0,0,0,2.23-5.13c0-6.07,0-12.16,0-18l0-5,0.28,0.06a10.32,10.32,0,0,0,1.81.22h0.22l0,0.54c0.05,1.24.11,2.51,0.11,3.76q0,4.48,0,9c0,3.49,0,7,0,10.46a6.68,6.68,0,0,1-2.19,5.24c-1.07,1-2.11,2.06-3.13,3.09s-1.94,2-2.94,2.91a4.78,4.78,0,0,0-1.63,3.81c0.07,6,.07,10.89,0,15.32a5.61,5.61,0,0,0,2.14,4.63c2.75,2.5,5.34,5.3,7.85,8l0.12,0.13a7.12,7.12,0,0,0,5.67,2.32h0.06c8.57,0,17.26,0,24.94,0l7,0v0.24a10.19,10.19,0,0,0,.09,1.88l0,0.27h-8Q220.65,99.23,207.65,99.26Zm-16-15.6a2.75,2.75,0,0,0,.81,2.28c1.89,1.86,3.79,3.77,5.62,5.62l0.1,0.1c1.77,1.78,3.59,3.63,5.44,5.44a5.5,5.5,0,0,0,4,1.69q13,0,26,0h7.45a10.65,10.65,0,0,1-.07-1.46l-6.56,0c-7.67,0-16.37-.07-24.93,0h-0.06a7.55,7.55,0,0,1-6-2.47l-0.11-.12c-2.51-2.71-5.09-5.51-7.83-8a6,6,0,0,1-2.29-5c0.08-4.43.08-9.3,0-15.31A5.21,5.21,0,0,1,195,62.19c1-.93,2-1.92,2.91-2.88s2.08-2.12,3.16-3.12a6.24,6.24,0,0,0,2-4.9c0-3.49,0-7,0-10.46q0-4.48,0-8.95c0-1.24-.06-2.51-0.11-3.73V28a10.81,10.81,0,0,1-1.4-.17l0,4.47c0,5.89-.07,12,0,18a7,7,0,0,1-2.38,5.47c-1.26,1.17-2.51,2.42-3.72,3.63-1,1-2.07,2.07-3.13,3.08a2.2,2.2,0,0,0-.73,1.86c0.05,6.82.06,13.12,0,19.24h0Z"/><path class="cls-1" d="M158.84,123.42a6,6,0,0,0-4.36-1.95c-4,0-8,0-11.94,0h-2.79a8.73,8.73,0,0,1,0,2c2.77,0.19,5.6.16,8.34,0.13l3.15,0,1.93,0a5.62,5.62,0,0,1,4.22,1.61c1.17,1.19,2.36,2.37,3.54,3.55,2.26,2.24,4.6,4.56,6.78,7a5.88,5.88,0,0,1,1.6,4.28c0,18.86,0,37,0,37l2.18-.14s0-23.34.06-37.47a7.08,7.08,0,0,0-2.2-5.5C165.65,130.23,162,126.54,158.84,123.42Z"/><path class="cls-1" d="M169.18,177.3v-0.25c0-.18-0.07-18.39,0-37a5.66,5.66,0,0,0-1.54-4.12c-2.2-2.44-4.52-4.74-6.77-7l0,0c-1.17-1.16-2.34-2.32-3.5-3.5a5.4,5.4,0,0,0-4.06-1.54c-1.69,0-3.38,0-5.07,0H148c-2.71,0-5.51.06-8.25-.13l-0.23,0,0-.23a8.41,8.41,0,0,0,0-1.93l0-.27h3.06c3.61,0,7.81,0,11.95,0a6.22,6.22,0,0,1,4.52,2h0c3.09,3.1,6.76,6.77,10.6,10.52a7.3,7.3,0,0,1,2.27,5.67c0,14-.06,37.23-0.06,37.47v0.22Zm-17.9-54,1.93,0A5.83,5.83,0,0,1,157.6,125c1.15,1.18,2.32,2.34,3.49,3.5l0,0c2.25,2.23,4.58,4.54,6.79,7a6.09,6.09,0,0,1,1.66,4.44c0,17.46,0,34.54,0,36.79l1.71-.11c0-2.41,0-24,.06-37.25a6.87,6.87,0,0,0-2.13-5.34c-3.85-3.75-7.52-7.43-10.61-10.53a5.77,5.77,0,0,0-4.19-1.88c-4.13,0-8.33,0-11.94,0H140a8.88,8.88,0,0,1,0,1.53c2.65,0.17,5.36.15,8,.12h0.11Z"/><path class="cls-1" d="M93.55,75.41l-0.49-.47A5.2,5.2,0,0,1,91,71c0-7.3,0-14.62,0-21.76a3.92,3.92,0,0,1,1-3,3.78,3.78,0,0,1,2.92-.94c1.33,0,2.67,0,4,0,1.49,0,3,0,4.55,0a5.21,5.21,0,0,0,4.19-1.57q2.6-2.6,5.23-5.18c2.61-2.57,5.21-5.14,7.78-7.75,0.72-.73,1.47-1.44,2.22-2.16a49.75,49.75,0,0,0,4.09-4.21,7,7,0,0,1-1.64-1.24l-2.52,2.5Q115,33.57,107.26,41.43a5.32,5.32,0,0,1-4.15,1.84c-3.3-.08-6.21-0.08-8.89,0-3.39.1-5.33,2.13-5.31,5.58,0,4.74,0,9.47,0,14.21v2.17c0,8.87,0,8.87,6.46,15,2.7,2.57,5.26,5.43,4.84,9.75l0.91,0,1.06,0c0.5-3.78-.2-6.22-2.3-8.25S95.67,77.58,93.55,75.41Z"/><path class="cls-1" d="M100,90.26l0-.27c0.41-4.25-2.13-7.05-4.77-9.56-6.54-6.23-6.54-6.23-6.54-15.2V62.6c0-4.51,0-9.16,0-13.75,0-3.6,2-5.72,5.54-5.82,2.68-.08,5.59-0.08,8.9,0a5,5,0,0,0,4-1.77c5.09-5.19,10.29-10.43,15.33-15.49l2.89-2.87,0.16,0.17a6.69,6.69,0,0,0,1.59,1.19l0.25,0.14-0.18.22A49.64,49.64,0,0,1,123,28.85c-0.75.72-1.5,1.43-2.21,2.15-2.64,2.68-5.38,5.38-7.79,7.75q-2.62,2.58-5.22,5.18a5.46,5.46,0,0,1-4.36,1.64c-1.56-.06-3.14,0-4.54,0H98.82c-1.29,0-2.62,0-3.93,0a3.59,3.59,0,0,0-2.76.87,3.71,3.71,0,0,0-.93,2.81c0,7.09.05,14.41,0,21.76a5,5,0,0,0,2,3.79c0.18,0.17.34,0.32,0.5,0.48h0c2.12,2.16,4.19,4.28,6.34,6.35s2.87,4.62,2.37,8.45l0,0.21h-0.21c-0.62,0-1.28,0-1.94,0H100Zm1.16-.5,0.86,0c0.43-3.55-.25-5.9-2.26-7.84s-4.23-4.2-6.35-6.36h0l-0.47-.45A5.42,5.42,0,0,1,90.75,71c0-7.35,0-14.67,0-21.76a4.14,4.14,0,0,1,1.07-3.15,4,4,0,0,1,3.1-1c1.3,0,2.63,0,3.91,0h0.08c1.41,0,3,0,4.56,0a5,5,0,0,0,4-1.5q2.6-2.6,5.23-5.18c2.41-2.38,5.14-5.07,7.78-7.75,0.72-.73,1.47-1.44,2.19-2.14a52.37,52.37,0,0,0,3.92-4,7.07,7.07,0,0,1-1.28-1l-2.55,2.54c-5,5.07-10.24,10.31-15.33,15.49a5.53,5.53,0,0,1-4.15,1.91h-0.17c-3.3-.08-6.21-0.08-8.87,0-3.25.09-5.1,2-5.09,5.35,0,4.58,0,9.24,0,13.75v2.63c0,8.77,0,8.77,6.39,14.86,2.67,2.54,5.24,5.38,4.93,9.68h0.65Z"/><path class="cls-1" d="M155.42,115.42a6.74,6.74,0,0,0,4.86-2.3c2.4-2.47,4.89-4.93,7.29-7.3l1.63-1.61a7.44,7.44,0,0,0,2.42-5.47V75.88a9,9,0,0,0,0-1.07,13.92,13.92,0,0,1-2.12-.2q0,2.4,0,4.81c0,5.88-.07,12,0,17.94a7.08,7.08,0,0,1-2.35,5.67c-1.44,1.35-2.82,2.82-4.16,4.24-1.14,1.21-2.33,2.47-3.55,3.66a7.86,7.86,0,0,1-5.94,2.45h-0.06c-9.53,0-19.23,0-28.6,0l-7.69,0a7.6,7.6,0,0,1-.12,2C128.66,115.72,141.26,115.71,155.42,115.42Z"/><path class="cls-1" d="M135,115.88c-6.28,0-12.26-.07-18-0.21h-0.27l0-.27a7.43,7.43,0,0,0,.12-2l0-.25,7.94,0c9.71,0,19.21,0,28.61,0h0.06a7.64,7.64,0,0,0,5.77-2.39c1.22-1.19,2.4-2.44,3.55-3.66s2.72-2.89,4.17-4.25a6.86,6.86,0,0,0,2.27-5.49c-0.07-6,0-12.08,0-17.95q0-2.4,0-4.81V74.33l0.27,0a13.85,13.85,0,0,0,2.08.2h0.2l0,0.2a9.33,9.33,0,0,1,0,1.1V98.73a7.65,7.65,0,0,1-2.49,5.63L167.74,106c-2.39,2.37-4.86,4.81-7.29,7.3a7,7,0,0,1-5,2.37h0C148.24,115.8,141.45,115.88,135,115.88Zm-17.75-.67c11.64,0.28,24.13.27,38.18,0h0a6.52,6.52,0,0,0,4.7-2.23c2.43-2.49,4.9-4.94,7.3-7.31L169,104a7.21,7.21,0,0,0,2.35-5.3V75.88c0-.28,0-0.57,0-0.85a14.31,14.31,0,0,1-1.67-.15q0,2.27,0,4.53c0,5.86-.07,11.92,0,17.94a7.3,7.3,0,0,1-2.42,5.84c-1.45,1.36-2.88,2.88-4.15,4.23s-2.33,2.47-3.56,3.67a8.07,8.07,0,0,1-6.1,2.52h-0.06c-9.4,0-18.9,0-28.6,0l-7.44,0A7.75,7.75,0,0,1,117.24,115.21Z"/><path class="cls-1" d="M130.31,68.56c0,2.52,0,5,0,7.56,0,1.82,0,3.64,0,5.46,0,2.74-.07,5.55.06,8.33a6.59,6.59,0,0,1,2.13,0V84q0-13,0-26.06a5.43,5.43,0,0,1,1.68-4.19q3.48-3.44,6.93-6.92c3.26-3.27,6.63-6.65,10-9.93a6.47,6.47,0,0,0,2.19-4.67c0-3.2,0-6.46,0-9.61q0-1.25,0-2.5a7.28,7.28,0,0,1-2.07,0v1.66c0,3.12,0,6.24,0,9.36a5.62,5.62,0,0,1-1.7,4.23q-5,4.89-9.89,9.8l-6.31,6.25a8.6,8.6,0,0,0-3,6.71C130.35,61.64,130.33,65.16,130.31,68.56Z"/><path class="cls-1" d="M130.13,90.18V89.91c-0.13-2.79-.1-5.61-0.06-8.34,0-1.69,0-3.6,0-5.45,0-2.52,0-5.08,0-7.56h0c0-3.39,0-6.9-.06-10.37a8.82,8.82,0,0,1,3-6.88l6.31-6.25q4.94-4.9,9.89-9.8a5.39,5.39,0,0,0,1.63-4.06c0-3.12,0-6.24,0-9.36V19.9l0.27,0a7.06,7.06,0,0,0,2,0l0.26,0,0,2.75c0,3.14.09,6.4,0,9.62a6.69,6.69,0,0,1-2.26,4.83c-3.37,3.29-6.74,6.67-10,9.93l-0.4.4q-3.26,3.26-6.53,6.51a5.22,5.22,0,0,0-1.61,4c0,8.69,0,17.52,0,26.06v6.13l-0.26,0a6.38,6.38,0,0,0-2.05,0Zm1.21-.61a8.31,8.31,0,0,1,.91.06V84c0-8.54,0-17.37,0-26.05A5.65,5.65,0,0,1,134,53.63q3.28-3.24,6.52-6.51l0.4-.4c3.25-3.26,6.62-6.64,10-9.93a6.24,6.24,0,0,0,2.12-4.5c0-3.21,0-6.46,0-9.6l0-2.24a7.46,7.46,0,0,1-1.6,0v1.39c0,3.12,0,6.24,0,9.36a5.84,5.84,0,0,1-1.77,4.4q-5,4.89-9.89,9.8l-6.31,6.25a8.39,8.39,0,0,0-2.9,6.53c0.1,3.48.08,7,.06,10.39h0c0,2.48,0,5,0,7.55,0,1.86,0,3.77,0,5.46,0,2.64-.06,5.37.05,8.06A5.52,5.52,0,0,1,131.33,89.58Z"/><path class="cls-1" d="M117,58.5q0,3.7,0,7.4,0,9.14.08,18.27l0,5.85a16.55,16.55,0,0,1,2,0c0-.41,0-0.81,0-1.22V85q0-16.47,0-32.93a6.37,6.37,0,0,1,2-4.94c4.87-4.77,9.76-9.68,14.5-14.43l3.78-3.8c1.54-1.55,2.73-2.87,2.78-4.69,0.05-1.64,0-3.33,0-5l0-.65-1.94.3v0.17a12.63,12.63,0,0,0,0,2.5c0.37,2.72-1,4.47-2.35,5.84l-6.43,6.42Q125.25,40,119.07,46.06A6.45,6.45,0,0,0,117,51Q117,54.73,117,58.5Z"/><path class="cls-1" d="M116.91,90.27l0-6.1q0-9.14-.08-18.27,0-3.7,0-7.4h0V58.22q0-3.62,0-7.25a6.67,6.67,0,0,1,2.13-5.08c4.15-4.08,8.3-8.23,12.31-12.24l6.43-6.42a6.39,6.39,0,0,0,2.28-5.64,12.77,12.77,0,0,1,0-2.55l0-.36,2.38-.37,0,0.92c0,1.55.08,3.31,0,5-0.06,1.91-1.27,3.27-2.85,4.85L135.63,33c-4.69,4.71-9.54,9.58-14.36,14.3a6.15,6.15,0,0,0-1.91,4.77c0,10.62,0,21.42,0,31.87v4.86c0,0.41,0,.82,0,1.23v0.24l-0.24,0a16.78,16.78,0,0,0-1.93,0h-0.24Zm23.5-71.18a12.33,12.33,0,0,0,0,2.44c0.38,2.81-1,4.63-2.41,6L131.55,34c-4,4-8.16,8.16-12.31,12.25a6.23,6.23,0,0,0-2,4.74q0,3.62,0,7.25V58.5q0,3.7,0,7.4,0,9.13.08,18.26l0,5.62c0.56,0,1.05,0,1.51,0,0-.32,0-0.65,0-1V83.93c0-10.44,0-21.24,0-31.87a6.58,6.58,0,0,1,2-5.11c4.82-4.72,9.67-9.59,14.36-14.3l3.92-3.93c1.51-1.51,2.66-2.8,2.71-4.53s0-3.33,0-4.95V18.86Z"/><path class="cls-1" d="M145.35,79.68a7.9,7.9,0,0,1,1.43,1.57l1.85-1.83c4.54-4.51,9.24-9.16,13.82-13.79a4.4,4.4,0,0,0,1.65-3.13q0-16.62,0-33.25v-9.3a8.54,8.54,0,0,1-2,0c0,0.82-.08,1.63-0.08,2.45q0,18.9,0,37.8a5.48,5.48,0,0,1-1.45,4.34L160,65c-1.33,1.26-2.7,2.56-4,3.88s-2.72,2.73-4.1,4.08C149.7,75.13,147.43,77.35,145.35,79.68Z"/><path class="cls-1" d="M146.74,81.61l-0.16-.24a7.6,7.6,0,0,0-1.39-1.52L145,79.7l0.16-.18c2.07-2.32,4.33-4.53,6.52-6.67L151.9,73l-0.16-.17c1.35-1.32,2.76-2.7,4.1-4.07s2.65-2.61,4-3.87l0.59-.56a5.28,5.28,0,0,0,1.38-4.17q0-18.9,0-37.8c0-.82,0-1.63.09-2.46V19.64l0.25,0a8.09,8.09,0,0,0,1.91,0l0.26,0V31.2q0,15.65,0,31.3a4.6,4.6,0,0,1-1.72,3.29c-4.62,4.67-9.29,9.31-13.82,13.79Zm-1.06-2a8.16,8.16,0,0,1,1.13,1.23l1.65-1.64c4.52-4.48,9.2-9.12,13.81-13.79a4.21,4.21,0,0,0,1.58-3q0-15.65,0-31.3v-11a8.4,8.4,0,0,1-1.52,0c0,0.73-.07,1.46-0.07,2.19q0,18.9,0,37.8a5.68,5.68,0,0,1-1.53,4.51l-0.57.54c-1.34,1.27-2.7,2.56-4,3.87s-2.75,2.76-4.11,4.08l0,0C149.89,75.27,147.7,77.41,145.68,79.66Z"/><path class="cls-1" d="M248.41,71.76c-1.14-2.3-3.44-4.19-5.79-6a11.25,11.25,0,0,1-1.29,1.11l-0.3.24c5.29,3.54,7.38,8.79,6.53,16.48-0.2,1.8-.83,3.88-4,3.89h-2.9c-1.73,0-3.47,0-5.2,0-2.78,0-5.59,0-8.32,0-3.93,0-8-.07-12,0.09a8.31,8.31,0,0,1-.07,1.89l7.16,0q11.46,0,22.92,0a3.55,3.55,0,0,0,3.5-2.08C250.65,81.4,250.56,76.11,248.41,71.76Z"/><path class="cls-1" d="M241.91,89.79c-6.8,0-13.57,0-19.65,0l-7.43,0,0-.26a8.05,8.05,0,0,0,.07-1.84l0-.24h0.24c4-.15,8.06-0.12,12-0.09h0.15c2.67,0,5.44,0,8.16,0,1.73,0,3.47,0,5.2,0h2.9c3,0,3.57-1.87,3.77-3.69,0.83-7.59-1.21-12.76-6.43-16.26l-0.26-.18,0.55-.44a11,11,0,0,0,1.27-1.08l0.14-.15,0.17,0.13c2.32,1.78,4.69,3.71,5.85,6.07h0c2.18,4.41,2.27,9.76.28,15.9a3.78,3.78,0,0,1-3.72,2.24h-3.28Zm-26.54-.52,6.9,0c7,0,15,0,22.92,0a3.32,3.32,0,0,0,3.28-1.91c2-6,1.86-11.25-.26-15.55-1.09-2.21-3.33-4.07-5.56-5.78a12.52,12.52,0,0,1-1.17,1l-0.05,0c5.19,3.6,7.21,8.86,6.37,16.52-0.19,1.75-.84,4.08-4.23,4.1h-2.9c-1.73,0-3.47,0-5.2,0-2.73,0-5.49,0-8.17,0h-0.15c-3.84,0-7.81-.07-11.73.08A8.5,8.5,0,0,1,215.36,89.27Z"/><path class="cls-1" d="M235.82,108.65l-31,0a5.64,5.64,0,0,1-4.32-1.83c-0.53-.54-1-1.09-1.55-1.64a32.13,32.13,0,0,0-3.37-3.31,6.68,6.68,0,0,1-1.63,1.63c0.7,0.74,1.46,1.44,2.25,2.16a37.6,37.6,0,0,1,2.85,2.81,7,7,0,0,0,5.77,2.37c1.92,0,3.85,0,5.78,0,1.7,0,3.41,0,5.11,0,1.42,0,2.84,0,4.27,0,2.12,0,4.24,0,6.32,0,5.55,0,11.26.09,16.9-.2a6.79,6.79,0,0,1-.18-1.93h-7.2Z"/><path class="cls-1" d="M232.52,111.06c-2.08,0-4.15,0-6.2,0h-0.24c-3.4,0-6.91-.05-10.36,0-1.53,0-3.08,0-4.58,0H210.6c-2.05,0-3.9,0-5.77,0h-0.14a7.22,7.22,0,0,1-5.81-2.45A37.22,37.22,0,0,0,196,105.8c-0.77-.7-1.56-1.43-2.26-2.18l-0.19-.2,0.22-.15a6.41,6.41,0,0,0,1.58-1.58l0.14-.2,0.19,0.15a32.19,32.19,0,0,1,3.38,3.32c0.52,0.56,1,1.11,1.55,1.65a5.42,5.42,0,0,0,4.15,1.76l31,0,7.45,0,0,0.25a6.48,6.48,0,0,0,.17,1.86l0.06,0.27h-0.27C239.66,111,236.07,111.06,232.52,111.06ZM220,110.53c2.05,0,4.1,0,6.1,0h0.22c5.46,0,11.08.09,16.61-.18a6.92,6.92,0,0,1-.14-1.48h-7l-31,0a5.85,5.85,0,0,1-4.48-1.9c-0.53-.54-1-1.09-1.55-1.65a33.86,33.86,0,0,0-3.15-3.13,6.85,6.85,0,0,1-1.32,1.33c0.64,0.67,1.33,1.3,2.06,2a37.7,37.7,0,0,1,2.87,2.82,6.78,6.78,0,0,0,5.46,2.29h0.13c1.87,0,3.73,0,5.78,0h0.53c1.5,0,3,0,4.57,0S218.56,110.53,220,110.53Z"/><path class="cls-1" d="M84.59,94.75c-0.33-.29-0.66-0.59-1-0.89a6.43,6.43,0,0,1-2.11-5.11c0.07-7.89,0-15.91,0-23.67V64c0-4.09-.05-8.17-0.09-12.26l0-3.86a9.91,9.91,0,0,1-2.09-.15v8.19q0,17,0,34.09a5.15,5.15,0,0,0,1.35,3.74c1.13,1.15,2.3,2.27,3.47,3.38l0.71,0.68,0.29-.24a16.94,16.94,0,0,1,1.35-1A20.23,20.23,0,0,0,84.59,94.75Z"/><path class="cls-1" d="M84.8,98.15l-0.86-.82c-1.15-1.09-2.33-2.22-3.47-3.39A5.37,5.37,0,0,1,79.06,90q0-17,0-34.09V47.49l0.27,0a10,10,0,0,0,2,.14h0.24l0,4.1c0,4.09.08,8.18,0.09,12.26v1c0,7.77.05,15.79,0,23.67a6.22,6.22,0,0,0,2,4.94c0.3,0.28.61,0.56,0.92,0.84l0.05,0-0.16.17,0.17-.16a20.24,20.24,0,0,1,1.87,1.82l0.17,0.2-0.22.15c-0.49.33-.94,0.7-1.33,1ZM79.55,48v7.91q0,17,0,34.09a4.92,4.92,0,0,0,1.28,3.57c1.14,1.16,2.32,2.29,3.46,3.37l0.56,0.54L85,97.42c0.34-.28.73-0.6,1.15-0.9a22.47,22.47,0,0,0-1.66-1.58l-0.06-.06c-0.31-.28-0.62-0.56-0.93-0.84a6.65,6.65,0,0,1-2.18-5.29c0.07-7.88,0-15.89,0-23.64V64c0-4.09-.05-8.17-0.09-12.26l0-3.62A10.2,10.2,0,0,1,79.55,48Z"/><path class="cls-1" d="M112.25,105.89c2.43,0,4.86,0,7.29,0,2.65,0,5.34,0,8,0,4.6,0,9.24.06,13.84,0.29,5.39,0.26,8.94-1.25,11.88-5a18,18,0,0,1,2.22-2.28,16.63,16.63,0,0,0,1.85-1.87L156,95.41c-1.86,1.59-3.59,3.39-5.27,5.14l-1.56,1.61a5.27,5.27,0,0,1-4.14,1.7c-4.13-.07-8.33,0-12.4,0h-1l-14.3.09-5.17,0A8.39,8.39,0,0,1,112.25,105.89Z"/><path class="cls-1" d="M142.58,106.35l-1.18,0c-4-.2-8.37-0.29-13.83-0.29-2.61,0-5.21,0-7.78,0h-0.25c-2.43,0-4.86,0-7.29,0H112l0-.26A8.1,8.1,0,0,0,112,104l0-.26,6.53,0,13.21-.08h1c4.05,0,8.24,0,12.41,0h0.1A5,5,0,0,0,149,102l1.42-1.46,0.14-.14c1.68-1.74,3.41-3.55,5.28-5.15l0.17-.15,1.63,1.79-0.12.16a16.72,16.72,0,0,1-1.88,1.89,17.87,17.87,0,0,0-2.19,2.25C150.71,104.77,147.41,106.35,142.58,106.35Zm-15-.78c5.46,0,9.86.09,13.85,0.29,5.31,0.28,8.8-1.22,11.69-5a18.2,18.2,0,0,1,2.24-2.31,18,18,0,0,0,1.7-1.69L156,95.74c-1.79,1.55-3.46,3.29-5.08,5l-0.14.14-1.42,1.47a5.53,5.53,0,0,1-4.31,1.77c-4.16-.06-8.35,0-12.4,0h-1l-13.2.08-6,0a8.52,8.52,0,0,1,0,1.45c2.35,0,4.69,0,7,0h0.25C122.36,105.59,125,105.57,127.58,105.57Z"/><path class="cls-1" d="M208.43,137.33l-1.4,0c-2.06-.05-4.19-0.12-6.28-0.1-3.39,0-5.3,1.88-5.36,5.25l0,1.87c-0.06,2.72-.12,5.53.06,8.25,0.25,3.68,0,7.42-3.1,10.19a7,7,0,0,1,1.36,1.6,11.08,11.08,0,0,0,4-10.35,56.15,56.15,0,0,1-.15-6.95c0-1.14,0-2.28,0-3.42a4.4,4.4,0,0,1,1-3.38,4.6,4.6,0,0,1,3.42-1l6.13,0.08h0.52A8.44,8.44,0,0,1,208.43,137.33Z"/><path class="cls-1" d="M193.63,164.71l-0.14-.22a6.73,6.73,0,0,0-1.31-1.55l-0.21-.17,0.2-.18c3.07-2.74,3.27-6.43,3-10-0.19-2.73-.12-5.55-0.06-8.27l0-1.87c0.06-3.52,2-5.47,5.59-5.48,1.78,0,3.6,0,5.35.07l2.57,0.06v0.24a8.32,8.32,0,0,0,.11,2l0.05,0.28-1.68,0-5.25-.07a4.38,4.38,0,0,0-3.25.89,4.21,4.21,0,0,0-.88,3.22c0,1.14,0,2.3,0,3.42a55.87,55.87,0,0,0,.15,6.92c0.46,4.46-.82,7.81-4,10.55Zm-1-2a7.22,7.22,0,0,1,1.05,1.25c2.95-2.6,4.12-5.78,3.68-10a56.2,56.2,0,0,1-.15-7c0-1.12,0-2.28,0-3.41,0-1.5.15-2.68,1-3.55a4.76,4.76,0,0,1,3.59-1l5.25,0.07,1.11,0a8.77,8.77,0,0,1-.08-1.6l-2.09-.05c-1.75,0-3.57-.1-5.34-0.07-3.25,0-5.07,1.8-5.13,5l0,1.87c-0.06,2.71-.12,5.51.06,8.23C195.9,156.18,195.7,159.91,192.67,162.76Z"/><path class="cls-1" d="M215.64,36.8a10.06,10.06,0,0,1-2,0c0,0.57,0,1.14,0,1.7v2.29c0,6.69,0,13.38,0,20.07a6.27,6.27,0,0,1-1.91,4.74c-0.74.75-1.5,1.48-2.27,2.21a48.13,48.13,0,0,0-3.77,3.86A11.89,11.89,0,0,1,207,73l0.17,0.2L208.35,72c1.7-1.76,3.45-3.58,5.26-5.31a6.36,6.36,0,0,0,2.08-4.89q0-9.72,0-19.44Z"/><path class="cls-1" d="M207.12,73.6l-0.34-.4a11.68,11.68,0,0,0-1.26-1.35l-0.17-.15,0.15-.17a48.27,48.27,0,0,1,3.79-3.88l0.08-.08c0.72-.69,1.47-1.4,2.18-2.12a6.05,6.05,0,0,0,1.84-4.57c0-6.69,0-13.49,0-20.07V38.51c0-.57,0-1.14,0-1.71V36.55l0.24,0a10,10,0,0,0,1.91,0l0.26,0,0,6.68q0,9.29,0,18.58a6.58,6.58,0,0,1-2.15,5.06c-1.81,1.72-3.56,3.54-5.25,5.3Zm-1.12-2a13.51,13.51,0,0,1,1.14,1.25h0l1-1.08c1.7-1.76,3.45-3.58,5.27-5.32a6.14,6.14,0,0,0,2-4.72q0-9.29,0-18.57l0-6.16a10.53,10.53,0,0,1-1.5,0c0,0.48,0,1,0,1.45v2.29c0,6.58,0,13.38,0,20.07a6.49,6.49,0,0,1-2,4.9c-0.71.73-1.46,1.44-2.19,2.13l-0.08.08A49.94,49.94,0,0,0,206,71.65Z"/><path class="cls-1" d="M225.28,70.47c1.9,2,3.82,3.93,5.75,5.88l0.48,0.49a7.31,7.31,0,0,1,1.78-1.69,7.7,7.7,0,0,0-.92-0.78L232,74.1c-4.47-3.54-6.2-7.56-5.28-12.28a5.88,5.88,0,0,0,0-1.32V60.24c-0.08-1.83,0-3.67,0-5.45a60.36,60.36,0,0,0-.12-6.9,7.59,7.59,0,0,1-2.14,0l0.27,21.13A2.06,2.06,0,0,0,225.28,70.47Z"/><path class="cls-1" d="M231.54,77.21l-0.68-.69c-1.88-1.91-3.83-3.89-5.75-5.89h0a2.29,2.29,0,0,1-.58-1.57l-0.28-21.4,0.27,0a7.26,7.26,0,0,0,2.08,0l0.24,0,0,0.24a60.32,60.32,0,0,1,.12,6.91c0,1.81-.07,3.63,0,5.45V60.5a6,6,0,0,1,0,1.37c-0.9,4.62.8,8.57,5.2,12l0.34,0.27a7.85,7.85,0,0,1,.94.81l0.18,0.19-0.21.15A7.11,7.11,0,0,0,231.7,77Zm-6.81-29L225,69.06a1.84,1.84,0,0,0,.45,1.26h0c1.91,2,3.86,4,5.75,5.88l0.29,0.29a7.47,7.47,0,0,1,1.45-1.36c-0.2-.18-0.44-0.37-0.7-0.57l-0.34-.27c-4.55-3.6-6.3-7.69-5.37-12.51a5.72,5.72,0,0,0,0-1.26V60.25c-0.08-1.83,0-3.66,0-5.44a62.71,62.71,0,0,0-.09-6.66A7.92,7.92,0,0,1,224.73,48.19Z"/><path class="cls-1" d="M132.29,135.55l-1.08-1.15a45,45,0,0,0-4.62-4.48,3.77,3.77,0,0,0-1.46,1.18,62.25,62.25,0,0,0,8.56,8.36,0.46,0.46,0,0,0,.14.07l2.2,0,3.13,0c2.44,0,4.94.06,7.41-.07a8.89,8.89,0,0,1,.18-2.13H145.4c-3.06,0-6.13-.05-9.18-0.05h0A5.07,5.07,0,0,1,132.29,135.55Z"/><path class="cls-1" d="M142.32,139.79l-3.11,0c-1.88,0-3.64,0-5.37,0a0.64,0.64,0,0,1-.29-0.12,62.32,62.32,0,0,1-8.6-8.39l-0.13-.15,0.12-.15a4,4,0,0,1,1.55-1.25l0.13-.05,0.11,0.09a45.18,45.18,0,0,1,4.65,4.5l1.08,1.15A4.85,4.85,0,0,0,136.2,137c3.1,0,6.25,0,9.2.05l1.63,0-0.06.28a8.56,8.56,0,0,0-.17,2.07v0.23h-0.23C145.17,139.77,143.74,139.79,142.32,139.79Zm-6.29-.52,3.13,0c2.38,0,4.8.06,7.17-.06a9.08,9.08,0,0,1,.13-1.68H145.4c-3,0-6.1-.07-9.18-0.05a5.29,5.29,0,0,1-4.1-1.79h0L131,134.56a45.88,45.88,0,0,0-4.49-4.37,3.51,3.51,0,0,0-1.12.91,61.47,61.47,0,0,0,8.4,8.18l0,0Z"/><path class="cls-1" d="M94.47,32.2c2.84-2.25,6.22-2.36,9-2.16a3.72,3.72,0,0,0,2.82-1.12l1.56-1.5c1.35-1.29,2.63-2.52,3.83-3.84a8.18,8.18,0,0,1-1.57-1.44l-0.41.39c-1.23,1.16-2.49,2.36-3.67,3.59a4.91,4.91,0,0,1-4.31,1.77c-3.67-.46-6.43.37-8.68,2.62A7.07,7.07,0,0,1,94.47,32.2Z"/><path class="cls-1" d="M94.41,32.54l-0.14-.22a6.86,6.86,0,0,0-1.41-1.63l-0.19-.16,0.18-.18c2.3-2.31,5.12-3.16,8.87-2.69a4.7,4.7,0,0,0,4.11-1.7c1.18-1.24,2.45-2.44,3.68-3.6l0.59-.56L110.26,22a8.05,8.05,0,0,0,1.52,1.4L112,23.54l-0.18.19c-1.2,1.32-2.48,2.55-3.84,3.85l-0.12.11-1.44,1.39a4,4,0,0,1-3,1.18c-2.62-.19-6-0.13-8.8,2.11Zm-1.06-2a7.37,7.37,0,0,1,1.17,1.35c2.9-2.18,6.28-2.25,8.93-2a3.47,3.47,0,0,0,2.64-1.05l1.44-1.39,0.12-.11c1.29-1.23,2.5-2.4,3.64-3.64a8.54,8.54,0,0,1-1.24-1.14l-0.24.22c-1.22,1.16-2.49,2.35-3.66,3.58a5.14,5.14,0,0,1-4.51,1.84C98.16,27.68,95.52,28.44,93.36,30.51Z"/><path class="cls-1" d="M217.75,145.28a7.45,7.45,0,0,1,1.34,1.37l0.8-.74c1.57-1.45,3.2-3,4.7-4.49a6.83,6.83,0,0,1,5.56-2.19,34.71,34.71,0,0,0,4.77,0,10.06,10.06,0,0,1,.05-2h-1c-2.23,0-4.46-.05-6.69,0a3.28,3.28,0,0,0-2.32,1C222.53,140.48,220.1,142.85,217.75,145.28Z"/><path class="cls-1" d="M219.06,147l-0.16-.21a7.23,7.23,0,0,0-1.3-1.33l-0.2-.16,0.18-.19c2.36-2.44,4.81-4.82,7.26-7.07a3.5,3.5,0,0,1,2.48-1c1.93,0,3.89,0,5.79,0l2.12,0,0,0.26a9.72,9.72,0,0,0-.05,1.94l0,0.23-0.23,0a35,35,0,0,1-4.8,0,6.62,6.62,0,0,0-5.38,2.12c-1.51,1.54-3.13,3-4.7,4.5Zm-1-1.74a7.65,7.65,0,0,1,1,1.05l0.61-.57c1.57-1.45,3.19-2.95,4.69-4.48a7,7,0,0,1,5.74-2.26,36.64,36.64,0,0,0,4.51.06,10.14,10.14,0,0,1,0-1.54l-1.6,0c-1.9,0-3.86,0-5.78,0a3.06,3.06,0,0,0-2.16.92C222.77,140.58,220.39,142.89,218.09,145.26Z"/><path class="cls-1" d="M69.17,62.33v2.79c0,4.05,0,8.1,0,12.15A14.07,14.07,0,0,1,69.06,79,9.21,9.21,0,0,0,69,80.67a16.71,16.71,0,0,1,2.21,0c0.17-6.26.11-12.45,0-18.34A8.14,8.14,0,0,1,69.17,62.33Z"/><path class="cls-1" d="M68.75,80.92l0-.23A9.4,9.4,0,0,1,68.83,79,13.77,13.77,0,0,0,69,77.27c0-4.12,0-8.2,0-12.15V62.07l0.26,0a7.88,7.88,0,0,0,2,0l0.26,0V62.3c0.09,5.8.15,12,0,18.35V80.9l-0.24,0a16.42,16.42,0,0,0-2.18,0ZM69.4,62.58v2.53c0,4,0,8,0,12.15A14.07,14.07,0,0,1,69.29,79a11.28,11.28,0,0,0-.1,1.43,16.85,16.85,0,0,1,1.76,0c0.16-6.14.11-12.19,0-17.83A8.52,8.52,0,0,1,69.4,62.58Z"/><path class="cls-1" d="M188.13,39.1c-0.12,2.32-.06,4.72,0,7q0,0.7,0,1.41a7.25,7.25,0,0,1,2-.06,16.76,16.76,0,0,0,0-3.88,20,20,0,0,1,0-4.22A8.61,8.61,0,0,0,187,31a6.37,6.37,0,0,1-1.44,1.5A7.37,7.37,0,0,1,188.13,39.1Z"/><path class="cls-1" d="M187.93,47.82l0-1.68c-0.06-2.35-.11-4.74,0-7.06h0a7.13,7.13,0,0,0-2.52-6.36l-0.23-.19,0.24-.18a6.11,6.11,0,0,0,1.39-1.45l0.15-.21,0.19,0.16a8.89,8.89,0,0,1,3.29,8.56,19.86,19.86,0,0,0,0,4.17,16.92,16.92,0,0,1,0,3.94l0,0.22-0.22,0a6.92,6.92,0,0,0-2,.06Zm-2-15.26a7.59,7.59,0,0,1,2.47,6.55h0c-0.12,2.3-.06,4.68,0,7l0,1.19a7.14,7.14,0,0,1,1.61,0,17.74,17.74,0,0,0,0-3.6,20.19,20.19,0,0,1,0-4.27,8.32,8.32,0,0,0-2.94-8A6.54,6.54,0,0,1,185.9,32.56Z"/><path class="cls-1" d="M145.59,62.27a32.77,32.77,0,0,0,4.84-4.7,9.07,9.07,0,0,1-1.61-1.47,39,39,0,0,0-4.61,4.58,10.93,10.93,0,0,1,1.24,1.41Z"/><path class="cls-1" d="M145.56,62.6l-0.29-.36a10.61,10.61,0,0,0-1.21-1.38l-0.17-.15,0.15-.17a39.33,39.33,0,0,1,4.64-4.61l0.18-.15L149,56a8.83,8.83,0,0,0,1.57,1.43l0.21,0.14-0.16.19a32.93,32.93,0,0,1-4.87,4.73Zm-1-1.93a12.3,12.3,0,0,1,1.09,1.27,32.35,32.35,0,0,0,4.46-4.32,9.32,9.32,0,0,1-1.3-1.19A38.83,38.83,0,0,0,144.54,60.67Z"/><path class="cls-1" d="M104.2,60.3a42.91,42.91,0,0,0,0,6.53,7.22,7.22,0,0,1,2.1.1l0-6.71A10.63,10.63,0,0,1,104.2,60.3Z"/><path class="cls-1" d="M106.53,67.22l-0.28-.06a6.87,6.87,0,0,0-2-.1l-0.24,0,0-.24a42.55,42.55,0,0,1,0-6.57l0-.22h0.22a10.55,10.55,0,0,0,2-.08l0.27,0Zm-1.62-.65a7.41,7.41,0,0,1,1.15.09l0-6.17a11.26,11.26,0,0,1-1.62.05,42,42,0,0,0,0,6Z"/></g></svg>