<svg id="Layer_1" data-name="Layer 1" xmlns="http://www.w3.org/2000/svg" viewBox="0 0 320 197.78"><defs><style>.cls-1{fill:#e64c4c;}</style></defs><title>Poller_CIS</title><path class="cls-1" d="M223.59,40.55s-2,18.1-3.36,26A18.13,18.13,0,0,1,206.7,80.73a32.6,32.6,0,0,0-12.22,6.38c-8.53,7.13-17.62,14.8-25.82,22.29,3.56,0.06,3.62,1.3,4.84,2.27-5.49,1-12.13.46-15.9,2.72a69.34,69.34,0,0,1-7.36,3.82l1.67,0.65h-3.18a93.91,93.91,0,0,1-25.1,6.28,148.46,148.46,0,0,0-19.25,4.14c-8.34,2.19-13,5.37-3.78,15.63a40.86,40.86,0,0,0,13.5,9.84c2.08,0,7.69-2.33,8.83-3.12l-5.82,4.17,0.08,0c9.06,2.2,19.89,1.34,29.22.46,22.84-2.14,39.86-15.61,51.49-36.41,0.62,1.93-.45,5.23.06,6.82,9.4-11.8,16-24.28,17.8-39.08A43.15,43.15,0,0,1,218.54,78c4-10.61,5.93-36.64,5.93-36.64ZM122.47,140.16c25.72-1.93,43.29-7.14,68.28-27.59C169.28,133.12,153.16,140.12,122.47,140.16Z"/></svg>