<svg id="Layer_1" data-name="Layer 1" xmlns="http://www.w3.org/2000/svg" viewBox="0 0 320 197.78"><defs><style>.cls-1{fill:#e64c4c;}</style></defs><title>Poller_CIS</title><path class="cls-1" d="M172.64,108h-0.06l0.29,0Z"/><path class="cls-1" d="M149.49,86.41a1.82,1.82,0,0,1-.22.53,3.93,3.93,0,0,0-.52,1.59,3.93,3.93,0,0,1,.52-1.59A1.81,1.81,0,0,0,149.49,86.41Z"/><path class="cls-1" d="M173.1,108l0.21,0.06Z"/><path class="cls-1" d="M172.73,66.69l-1.1-3.23a14.08,14.08,0,0,1-1.75,1.37,14.08,14.08,0,0,0,1.75-1.37Z"/><path class="cls-1" d="M176.56,79.19c-0.09,1.1-.15,2.21-0.21,3.31C176.41,81.4,176.47,80.29,176.56,79.19Z"/><path class="cls-1" d="M153.41,102c0.49,1.73.08,3.52,0,5.3a0.89,0.89,0,0,1-.1.32,0.9,0.9,0,0,0,.1-0.32C153.49,105.54,153.91,103.75,153.41,102Z"/><path class="cls-1" d="M175.95,73.36a9.08,9.08,0,0,0-1.12-1.61,3.52,3.52,0,0,1-.33-0.45,3.54,3.54,0,0,0,.33.45A9.06,9.06,0,0,1,175.95,73.36Z"/><path class="cls-1" d="M150.58,95.69c0.26,0.46.5,0.94,0.72,1.42a7.18,7.18,0,0,1,.31.82,7.18,7.18,0,0,0-.31-0.82C151.08,96.63,150.84,96.15,150.58,95.69Z"/><path class="cls-1" d="M174,108.61a1.77,1.77,0,0,1,.1.19A1.77,1.77,0,0,0,174,108.61Z"/><path class="cls-1" d="M174.2,108.93c0,0.07.05,0.15,0.08,0.23C174.25,109.09,174.23,109,174.2,108.93Z"/><path class="cls-1" d="M149.54,83.68c0-1.33-.06-2.66-0.16-4C149.49,81,149.51,82.35,149.54,83.68Z"/><path class="cls-1" d="M174.84,111.49a6.73,6.73,0,0,1-.34-1.3c0-.16-0.05-0.31-0.08-0.46,0,0.15.05,0.3,0.08,0.46A6.73,6.73,0,0,0,174.84,111.49Z"/><path class="cls-1" d="M174.33,109.31c0,0.09,0,.19.07,0.28C174.37,109.5,174.35,109.4,174.33,109.31Z"/><path class="cls-1" d="M173.8,108.35a1.32,1.32,0,0,1,.13.15A1.32,1.32,0,0,0,173.8,108.35Z"/><path class="cls-1" d="M172.21,102.93a5.8,5.8,0,0,1,.29-1l0.34-.85-0.34.85A5.8,5.8,0,0,0,172.21,102.93Z"/><path class="cls-1" d="M173.49,108.15a1.26,1.26,0,0,1,.17.11A1.25,1.25,0,0,0,173.49,108.15Z"/><path class="cls-1" d="M175.22,95.12a0.43,0.43,0,0,0-.14.18,0.44,0.44,0,0,1,.14-0.18,3.77,3.77,0,0,0,1.36-1.57A3.77,3.77,0,0,1,175.22,95.12Z"/><path class="cls-1" d="M151.51,109.63c0,0.11,0,.22-0.06.33s-0.1.48-.16,0.71c0.06-.23.12-0.47,0.16-0.71S151.5,109.74,151.51,109.63Z"/><path class="cls-1" d="M195.2,122.59c0.11,0.05.22,0.13,0.33,0.19-0.11-.06-0.21-0.14-0.33-0.19l-8.3-4h0Z"/><path class="cls-1" d="M128.78,126.32a7.72,7.72,0,0,1-.15-1.24A7.72,7.72,0,0,0,128.78,126.32Z"/><path class="cls-1" d="M151.29,110.68a5.17,5.17,0,0,1-2.42,3.35h0A5.17,5.17,0,0,0,151.29,110.68Z"/><path class="cls-1" d="M142.79,111.21a2.88,2.88,0,0,1-1.77-2.36c-0.12-.73-0.25-1.27-1.1-1.25-0.09-.9-0.19-1.73-0.24-2.57a2.16,2.16,0,0,1,.2-0.85c0.43-1.11.88-2.22,1.32-3.33a1.34,1.34,0,0,1,.22-0.57c1.22-.81,1-2.15,1.25-3.31a1.17,1.17,0,0,0-.16-0.93,2.16,2.16,0,0,1-.48-2c0.06-1.26.1-2.52,0.26-3.77A4,4,0,0,0,141.2,87a3.66,3.66,0,0,1-.59-1.15c-0.41-1.14-.79-2.28-1.23-3.56a11.37,11.37,0,0,1-5.32,2.48c-1.48.38-3,.62-4.45,1a4.07,4.07,0,0,0-3,4.59,39.45,39.45,0,0,1,.25,4.48,1.31,1.31,0,0,1-.18.74,5.16,5.16,0,0,0,.24,4.23,7.46,7.46,0,0,1,.91,1.55,10.44,10.44,0,0,0,.73,1.83c0.93,1.27.54,2.63,0.47,4a0.59,0.59,0,0,1-.3.45c-0.76,0-.7.56-0.8,1.06a3.07,3.07,0,0,1-1.85,2.5c-3.26,1.43-6.48,3-9.67,4.53-1.61.79-1.64,1-1.25,2.88H133.5c4.52-2.19,8.7-4.13,12.64-5.88C145,112.23,143.91,111.7,142.79,111.21Z"/><path class="cls-1" d="M148.87,114h0a6.34,6.34,0,0,1-.66.34c-0.83.36-1.65,0.76-2.47,1.13,0.83-.37,1.64-0.76,2.47-1.13A6.35,6.35,0,0,0,148.87,114Z"/><path class="cls-1" d="M148.87,114a6.35,6.35,0,0,1-.66.34,6.34,6.34,0,0,0,.66-0.34h0m-0.66.34h0m0,0c-0.82.36-1.63,0.75-2.45,1.12,0.82-.37,1.63-0.76,2.45-1.12"/><path class="cls-1" d="M176.7,113.83a6,6,0,0,0,.92.52A6,6,0,0,1,176.7,113.83Z"/><path class="cls-1" d="M176.7,113.83a6,6,0,0,0,.92.52,6,6,0,0,1-.92-0.52"/><path class="cls-1" d="M186.89,118.63l-0.46-.22,0.46,0.22h0Z"/><path class="cls-1" d="M186.44,118.41l0.46,0.22-0.46-.22"/><path class="cls-1" d="M209.32,116.47a8.09,8.09,0,0,0-.9-0.58c-3.32-1.58-6.63-3.19-10-4.69a2.88,2.88,0,0,1-1.77-2.36c-0.12-.73-0.25-1.27-1.1-1.25-0.09-.9-0.19-1.73-0.24-2.57a2.17,2.17,0,0,1,.2-0.85c0.43-1.11.88-2.22,1.32-3.33a1.34,1.34,0,0,1,.22-0.57c1.22-.81,1-2.15,1.25-3.31a1.17,1.17,0,0,0-.16-0.93,2.16,2.16,0,0,1-.48-2c0.06-1.26.1-2.52,0.26-3.77A4,4,0,0,0,196.83,87a3.66,3.66,0,0,1-.59-1.15c-0.41-1.14-.79-2.28-1.23-3.56a11.37,11.37,0,0,1-5.32,2.48c-1.48.38-3,.62-4.45,1a4.07,4.07,0,0,0-3,4.59,39.45,39.45,0,0,1,.25,4.48,1.31,1.31,0,0,1-.18.74,5.16,5.16,0,0,0,.24,4.23,7.46,7.46,0,0,1,.91,1.55,10.44,10.44,0,0,0,.73,1.83c0.93,1.27.54,2.63,0.47,4a0.59,0.59,0,0,1-.3.45c-0.76,0-.7.56-0.8,1.06a3.07,3.07,0,0,1-1.85,2.5c-0.89.39-1.78,0.81-2.67,1.22,4.45,2,8.9,4.11,13.21,6.17l0.07,0h17v-2.16Z"/><path class="cls-1" d="M195,82.28c0.44,1.28.82,2.43,1.23,3.56a3.66,3.66,0,0,0,.59,1.15,4,4,0,0,1,1.08,3.29c-0.15,1.25-.2,2.51-0.26,3.77a2.16,2.16,0,0,0,.48,2,1.17,1.17,0,0,1,.16.93c-0.23,1.16,0,2.5-1.25,3.31a1.34,1.34,0,0,0-.22.57c-0.44,1.11-.89,2.21-1.32,3.33a2.17,2.17,0,0,0-.2.85c0,0.83.15,1.66,0.24,2.57h0c0.82,0,.95.54,1.06,1.25a2.88,2.88,0,0,0,1.77,2.36c3.36,1.49,6.67,3.11,10,4.69a8.09,8.09,0,0,1,.9.58v2.16h-17l-0.07,0c-4.31-2.06-8.76-4.18-13.21-6.17,0.89-.41,1.78-0.82,2.67-1.22a3.07,3.07,0,0,0,1.85-2.5c0.1-.5,0-1.05.8-1.06a0.59,0.59,0,0,0,.3-0.45c0.07-1.35.47-2.71-.47-4a10.44,10.44,0,0,1-.73-1.83,7.46,7.46,0,0,0-.91-1.55,5.16,5.16,0,0,1-.24-4.23,1.31,1.31,0,0,0,.18-0.74,39.45,39.45,0,0,0-.25-4.48,4.07,4.07,0,0,1,3-4.59c1.46-.43,3-0.67,4.45-1A11.37,11.37,0,0,0,195,82.28"/><path class="cls-1" d="M195.52,122.79c-0.11-.06-0.21-0.14-0.33-0.19l-8.3-4-0.46-.22c-2.92-1.39-5.86-2.75-8.81-4.07a6,6,0,0,1-.92-0.52l-0.29-.2a4.89,4.89,0,0,1-.56-0.5,4.8,4.8,0,0,1-1-1.64,6.73,6.73,0,0,1-.34-1.3c0-.16-0.05-0.31-0.08-0.46l0-.14c0-.1,0-0.19-0.07-0.28l0-.15c0-.08,0-0.16-0.08-0.23l-0.07-.14a1.77,1.77,0,0,0-.1-0.19l-0.1-.11a1.32,1.32,0,0,0-.13-0.15l-0.13-.09a1.26,1.26,0,0,0-.17-0.11l-0.18-.06L173.1,108l-0.23,0-0.29,0h0c-0.15-1.59-.34-3-0.42-4.52a2.23,2.23,0,0,1,.05-0.54,5.8,5.8,0,0,1,.29-1l0.34-.85c0.66-1.67,1.33-3.33,2-5,0.1-.25.13-0.6,0.24-0.83a0.43,0.43,0,0,1,.14-0.18,3.77,3.77,0,0,0,1.36-1.57c0.62-1.29.55-2.84,0.84-4.25a2.06,2.06,0,0,0-.29-1.64,2.59,2.59,0,0,1-.87-1.67,4.3,4.3,0,0,1,0-.45c0-.45,0-0.92.05-1.38s0.05-1.11.08-1.66c0.05-1.11.11-2.21,0.21-3.31,0-.55.1-1.1,0.17-1.65a6.77,6.77,0,0,0-.78-4.18,9.06,9.06,0,0,0-1.12-1.61,3.54,3.54,0,0,1-.33-0.45,8.49,8.49,0,0,1-.7-1.56c-0.36-1-.71-2-1.07-3l-1.1-3.23a14.08,14.08,0,0,1-1.75,1.37,23.62,23.62,0,0,1-7.61,3c-2.6.67-5.26,1.09-7.83,1.84a7.42,7.42,0,0,0-4.8,4.1,7.15,7.15,0,0,0-.48,4c0.1,0.65.17,1.3,0.22,2,0.11,1.32.13,2.65,0.16,4,0,0.65,0,1.3.06,1.95a2.56,2.56,0,0,1-.1.77,1.81,1.81,0,0,1-.22.53,3.93,3.93,0,0,0-.52,1.59c0,0.16,0,.33-0.06.51,0,0.35,0,.72,0,1.09a10.94,10.94,0,0,0,.49,3.17c0.05,0.15.1,0.29,0.16,0.42a2.91,2.91,0,0,0,.38.66,9.68,9.68,0,0,1,.88,1.31c0.26,0.46.5,0.94,0.72,1.42a7.18,7.18,0,0,1,.31.82,8.28,8.28,0,0,0,1,2.4,5.26,5.26,0,0,1,.84,1.7c0.49,1.73.08,3.52,0,5.3a0.9,0.9,0,0,1-.1.32,0.81,0.81,0,0,1-.43.47c-1.17,0-1.23.75-1.35,1.53,0,0.11,0,.22-0.06.33s-0.1.48-.16,0.71a5.17,5.17,0,0,1-2.42,3.35,6.35,6.35,0,0,1-.66.34c-0.83.36-1.65,0.76-2.47,1.13-2.29,1-4.57,2.07-6.84,3.14q-3.86,1.82-7.7,3.71c-1.95,1-2.59,1.46-2.57,2.74a7.72,7.72,0,0,0,.15,1.24c0.06,0.33.14,0.69,0.22,1.09h67.79v-3.8C196.37,123.34,196,123,195.52,122.79Z"/><path class="cls-1" d="M174.13,108.8l0.07,0.14Z"/><path class="cls-1" d="M149.16,93.3a10.94,10.94,0,0,1-.49-3.17A10.93,10.93,0,0,0,149.16,93.3Z"/><path class="cls-1" d="M174.28,109.16l0,0.15Z"/><path class="cls-1" d="M172.87,108l0.23,0Z"/><path class="cls-1" d="M148.67,90.12c0-.37,0-0.74,0-1.09C148.67,89.38,148.66,89.75,148.67,90.12Z"/><path class="cls-1" d="M173.31,108.09l0.18,0.06Z"/><path class="cls-1" d="M173.93,108.5l0.1,0.11Z"/><path class="cls-1" d="M173.66,108.26l0.13,0.09Z"/><path class="cls-1" d="M151.61,97.92a8.28,8.28,0,0,0,1,2.4,5.27,5.27,0,0,1,.84,1.7,5.26,5.26,0,0,0-.84-1.7A8.28,8.28,0,0,1,151.61,97.92Z"/><path class="cls-1" d="M149.32,93.71a2.91,2.91,0,0,0,.38.66,9.68,9.68,0,0,1,.88,1.31,9.68,9.68,0,0,0-.88-1.31A2.91,2.91,0,0,1,149.32,93.71Z"/><path class="cls-1" d="M152.86,108.1a0.81,0.81,0,0,0,.43-0.47,0.81,0.81,0,0,1-.43.47c-1.17,0-1.23.75-1.35,1.53C151.63,108.86,151.69,108.12,152.86,108.1Z"/><path class="cls-1" d="M149.54,83.68c0,0.65,0,1.3.06,1.95a2.56,2.56,0,0,1-.1.77,2.56,2.56,0,0,0,.1-0.77C149.57,85,149.56,84.34,149.54,83.68Z"/><path class="cls-1" d="M149.64,73.77a7.15,7.15,0,0,0-.48,4c0.1,0.65.17,1.3,0.22,2-0.05-.65-0.12-1.31-0.22-2A7.15,7.15,0,0,1,149.64,73.77Z"/><path class="cls-1" d="M154.43,69.67c2.57-.75,5.23-1.17,7.83-1.84a23.62,23.62,0,0,0,7.61-3,23.62,23.62,0,0,1-7.61,3c-2.6.67-5.26,1.09-7.83,1.84a7.42,7.42,0,0,0-4.8,4.1A7.42,7.42,0,0,1,154.43,69.67Z"/><path class="cls-1" d="M176.42,113.63h0a4.89,4.89,0,0,1-.56-0.5A4.89,4.89,0,0,0,176.42,113.63Z"/><path class="cls-1" d="M131.19,122.34q3.83-1.88,7.7-3.71h0q-3.86,1.82-7.7,3.71c-1.95,1-2.59,1.46-2.57,2.74C128.61,123.8,129.24,123.3,131.19,122.34Z"/><path class="cls-1" d="M174.39,109.59l0,0.14Z"/><path class="cls-1" d="M196.79,127.41H129c-0.09-.41-0.16-0.77-0.22-1.09,0.06,0.33.14,0.69,0.22,1.09h67.79v-3.8c-0.42-.27-0.83-0.57-1.26-0.83,0.43,0.25.84,0.55,1.26,0.83v3.8Z"/><path class="cls-1" d="M174.84,111.49a4.8,4.8,0,0,0,1,1.64A4.8,4.8,0,0,1,174.84,111.49Z"/><path class="cls-1" d="M172.84,101.13c0.66-1.67,1.33-3.33,2-5,0.1-.25.13-0.6,0.24-0.83-0.11.23-.14,0.58-0.24,0.83C174.17,97.79,173.5,99.46,172.84,101.13Z"/><path class="cls-1" d="M174.5,71.3a8.5,8.5,0,0,1-.7-1.56c-0.36-1-.71-2-1.07-3,0.35,1,.7,2,1.07,3A8.49,8.49,0,0,0,174.5,71.3Z"/><path class="cls-1" d="M172.58,108h0c-0.15-1.59-.34-3-0.42-4.52a2.23,2.23,0,0,1,.05-0.54,2.23,2.23,0,0,0-.05.54C172.24,104.94,172.42,106.4,172.58,108Z"/><path class="cls-1" d="M176.73,77.54c-0.07.55-.12,1.1-0.17,1.65,0-.55.1-1.1,0.17-1.65a6.77,6.77,0,0,0-.78-4.18A6.77,6.77,0,0,1,176.73,77.54Z"/><path class="cls-1" d="M177.42,89.3c-0.28,1.41-.22,3-0.84,4.25,0.62-1.29.55-2.84,0.84-4.25a2.06,2.06,0,0,0-.29-1.64,2.59,2.59,0,0,1-.87-1.67,2.59,2.59,0,0,0,.87,1.67A2.06,2.06,0,0,1,177.42,89.3Z"/><path class="cls-1" d="M176.22,85.54c0-.45,0-0.92.05-1.38s0.05-1.11.08-1.66c0,0.55-.05,1.11-0.08,1.66S176.21,85.09,176.22,85.54Z"/><path class="cls-1" d="M145.73,115.5c-2.29,1-4.57,2.07-6.84,3.14h0C141.16,117.56,143.44,116.52,145.73,115.5Z"/><path class="cls-1" d="M176.7,113.83l-0.29-.2h0Z"/><g id="wzayh2.tif"><path class="cls-1" d="M84.25,100.63v-6H96.51v6H84.25Z"/><path class="cls-1" d="M225,100.62v-6H237.3v6H225Z"/><path class="cls-1" d="M157.88,161.9h5.8v12.2h-5.8V161.9Z"/><path class="cls-1" d="M157.81,33.31V21.15h5.89V33.31h-5.89Z"/><path class="cls-1" d="M160,185.84A87,87,0,1,1,223.39,39.37L220.53,42A82.25,82.25,0,0,0,160,15.85a83,83,0,1,0,83,83.69l3.92,0A87.18,87.18,0,0,1,160,185.84Z"/><polygon class="cls-1" points="226.35 34.01 229.1 49.39 214.4 44.09 226.35 34.01"/></g></svg>