<svg id="Layer_1" data-name="Layer 1" xmlns="http://www.w3.org/2000/svg" viewBox="0 0 320 197.78"><defs><style>.cls-1{fill:#e64c4c;}.cls-2{fill:none;}</style></defs><title>Poller_CIS</title><g id="nYWxWu.tif"><path class="cls-1" d="M154.33,117.48c-1-5.85-2-11.67-5.37-16.78a13.2,13.2,0,0,1,.7-15.95,13.42,13.42,0,0,1,18.1-2.4,13.27,13.27,0,0,1,3.61,17.75c-2.39,3.78-3.55,7.93-4.85,12.15-0.82,2.67-.58,5.23-0.95,7.82a4.16,4.16,0,0,1-1.44,2.54c-4,2.94-4,2.86-7.91.37a3.49,3.49,0,0,1-1.91-3.36C154.37,118.91,154.33,118.19,154.33,117.48Zm15.6-18.56c4.13-6.36-.2-15.16-6.57-17.23a10.84,10.84,0,0,0-12.05,3.75,12.31,12.31,0,0,0-1.26,13.79,44.06,44.06,0,0,1,4,9.54c1.25,4.91.44,4.53,6,4.54h2.34c2.31,0,2.64-.25,3.07-2.58m-8.8,9c2.12-.18,4.18-0.33,6.22-0.58a2.59,2.59,0,0,0,.64-1.06C158.78,117.85,156.88,118.25,156.62,119.68Zm6.86-3.58-0.35-.35c-1.9.15-3.8,0.28-5.7,0.48a2.36,2.36,0,0,0-.87.68,1.86,1.86,0,0,0,.78.54c1.8-.13,3.6-0.3,5.38-0.54A2.17,2.17,0,0,0,163.48,116.11Zm-0.15,4-6.27.48A5.27,5.27,0,0,0,163.33,120.11Zm-0.2-5.36c-3.6-.85-6.12-0.58-6.46.58Z"/><path class="cls-1" d="M135.25,109.8a4.65,4.65,0,0,1-.52-1.38,1.63,1.63,0,0,1,.46-1.27c2.28-1.4,4.6-2.74,7-4a1.47,1.47,0,0,1,1.39.33,1.45,1.45,0,0,1-.08,1.4c-2.41,1.49-4.88,2.88-7.34,4.29a1.1,1.1,0,0,1-.32.07Z"/><path class="cls-1" d="M142.66,85.32a4.12,4.12,0,0,1-.77-0.26c-2.18-1.25-4.39-2.47-6.5-3.83a3.44,3.44,0,0,1-.59-1.62c0.57-.12,1.28-0.53,1.68-0.32,2.28,1.19,4.5,2.48,6.69,3.83a1.85,1.85,0,0,1,.57,1.36,4.29,4.29,0,0,1-.46,1.41Z"/><path class="cls-1" d="M177.06,85.3a1.83,1.83,0,0,1-.75-0.68,1.52,1.52,0,0,1,.26-1.31c2.37-1.47,4.78-2.87,7.23-4.19a1.56,1.56,0,0,1,1.33.54,1.29,1.29,0,0,1-.15,1.26c-2.42,1.49-4.89,2.88-7.35,4.3A2.35,2.35,0,0,1,177.06,85.3Z"/><path class="cls-1" d="M177.17,102.87c0.48,0.21.79,0.32,1.07,0.48,2,1.17,4.11,2.28,6.08,3.56a4.22,4.22,0,0,1,.84,1.77,4.27,4.27,0,0,1-2,.16c-2.14-1.09-4.21-2.32-6.24-3.6a2,2,0,0,1-.66-1.46A2.34,2.34,0,0,1,177.17,102.87Z"/><path class="cls-1" d="M170.19,78A1.16,1.16,0,0,1,169,76.31q1.92-3.53,4-7a1.47,1.47,0,0,1,1.38-.39,1.43,1.43,0,0,1,.59,1.28c-1.34,2.5-2.78,5-4.22,7.4A1.35,1.35,0,0,1,170.19,78Z"/><path class="cls-1" d="M146.29,68.81a3.54,3.54,0,0,1,.87.8c1.26,2.11,2.53,4.23,3.65,6.42,0.23,0.45-.15,1.21-0.24,1.83a3.81,3.81,0,0,1-1.7-.72c-1.33-2.07-2.54-4.22-3.72-6.38A1.21,1.21,0,0,1,146.29,68.81Z"/><path class="cls-1" d="M161.1,70.32a34.58,34.58,0,0,1-.05,3.79,3.28,3.28,0,0,1-1,1.21c-0.4-.37-1.13-0.73-1.15-1.12-0.1-2.63-.11-5.27,0-7.91,0-.42.8-0.8,1.23-1.2a3.45,3.45,0,0,1,1,1.28A39.48,39.48,0,0,1,161.1,70.32Z"/><path class="cls-1" d="M183.74,95.28a22.51,22.51,0,0,1-3.45-.05,4.16,4.16,0,0,1-1.46-1.13A3.51,3.51,0,0,1,180.19,93c2.52-.11,5.05-0.11,7.57,0,0.44,0,.86.76,1.28,1.16a3.69,3.69,0,0,1-1.35,1.06,34.8,34.8,0,0,1-3.95.05h0Z"/><path class="cls-1" d="M136.12,92.94a23.85,23.85,0,0,1,3.61.06,4,4,0,0,1,1.43,1.2,3.64,3.64,0,0,1-1.41,1c-2.47.11-4.94,0.11-7.41,0a3.59,3.59,0,0,1-1.4-1A3.85,3.85,0,0,1,132.34,93,26.61,26.61,0,0,1,136.12,92.94Z"/></g><rect class="cls-2" x="123.78" y="41.67" width="72.44" height="109.74" rx="1" ry="1"/><circle class="cls-1" cx="160" cy="164.12" r="4.88"/><path class="cls-1" d="M199.23,19.89H120.77A2.13,2.13,0,0,0,118.64,22V175.76a2.13,2.13,0,0,0,2.13,2.13h78.46a2.13,2.13,0,0,0,2.13-2.12V22A2.13,2.13,0,0,0,199.23,19.89ZM152,28.52a0.94,0.94,0,0,1,.94-0.94h14.17a0.94,0.94,0,0,1,.94.94v1.21a0.94,0.94,0,0,1-.94.94H152.91a0.94,0.94,0,0,1-.94-0.94V28.52Zm-3.64-1a1.6,1.6,0,1,1-1.6,1.6A1.6,1.6,0,0,1,148.34,27.53ZM160,170.47a6.35,6.35,0,1,1,6.35-6.35A6.36,6.36,0,0,1,160,170.47Zm36.22-20.06a1,1,0,0,1-1,1H124.78a1,1,0,0,1-1-1V42.67a1,1,0,0,1,1-1h70.44a1,1,0,0,1,1,1V150.41Z"/></svg>