<svg id="Layer_1" data-name="Layer 1" xmlns="http://www.w3.org/2000/svg" viewBox="0 0 320 197.78"><defs><style>.cls-1{fill:#e64c4c;}</style></defs><title>Poller_CIS</title><rect class="cls-1" x="159.29" y="0.27" width="1.42" height="28.13"/><rect class="cls-1" x="159.29" y="169.37" width="1.42" height="28.13"/><path class="cls-1" d="M171,112.84H171a3,3,0,0,1,.32,0Z"/><path class="cls-1" d="M145.32,88.85a2,2,0,0,1-.24.59,4.37,4.37,0,0,0-.57,1.77,4.37,4.37,0,0,1,.57-1.77A2,2,0,0,0,145.32,88.85Z"/><path class="cls-1" d="M171.55,112.88a1.8,1.8,0,0,1,.24.07A1.8,1.8,0,0,0,171.55,112.88Z"/><path class="cls-1" d="M171.14,66.94l-1.22-3.59A15.65,15.65,0,0,1,168,64.87a15.65,15.65,0,0,0,1.95-1.52Z"/><path class="cls-1" d="M175.4,80.83c-0.1,1.22-.17,2.45-0.23,3.68C175.23,83.28,175.29,82.05,175.4,80.83Z"/><path class="cls-1" d="M149.67,106.2c0.55,1.92.08,3.91,0,5.89a1,1,0,0,1-.12.35,1,1,0,0,0,.12-0.35C149.76,110.12,150.22,108.12,149.67,106.2Z"/><path class="cls-1" d="M174.71,74.34a10.09,10.09,0,0,0-1.24-1.79,3.92,3.92,0,0,1-.36-0.5,3.94,3.94,0,0,0,.36.5A10.07,10.07,0,0,1,174.71,74.34Z"/><path class="cls-1" d="M146.52,99.16c0.29,0.51.55,1,.8,1.58a8,8,0,0,1,.35.91,8,8,0,0,0-.35-0.91C147.07,100.21,146.81,99.68,146.52,99.16Z"/><path class="cls-1" d="M172.58,113.53a2,2,0,0,1,.11.21A2,2,0,0,0,172.58,113.53Z"/><path class="cls-1" d="M172.78,113.89c0,0.08.06,0.17,0.09,0.26C172.83,114.06,172.81,114,172.78,113.89Z"/><path class="cls-1" d="M145.37,85.82c0-1.48-.07-3-0.18-4.42C145.3,82.87,145.34,84.35,145.37,85.82Z"/><path class="cls-1" d="M173.49,116.73a7.48,7.48,0,0,1-.37-1.45c0-.18-0.06-0.35-0.09-0.51,0,0.16.06,0.33,0.09,0.51A7.48,7.48,0,0,0,173.49,116.73Z"/><path class="cls-1" d="M172.92,114.31c0,0.1,0,.21.07,0.31C173,114.51,172.94,114.41,172.92,114.31Z"/><path class="cls-1" d="M172.32,113.23a1.47,1.47,0,0,1,.15.17A1.47,1.47,0,0,0,172.32,113.23Z"/><path class="cls-1" d="M170.57,107.21a6.45,6.45,0,0,1,.33-1.06l0.37-.94-0.37.94A6.45,6.45,0,0,0,170.57,107.21Z"/><path class="cls-1" d="M172,113a1.4,1.4,0,0,1,.19.12A1.38,1.38,0,0,0,172,113Z"/><path class="cls-1" d="M173.91,98.53a0.48,0.48,0,0,0-.16.2,0.48,0.48,0,0,1,.16-0.2,4.19,4.19,0,0,0,1.51-1.75A4.19,4.19,0,0,1,173.91,98.53Z"/><path class="cls-1" d="M147.56,114.66c0,0.12,0,.25-0.06.37s-0.11.54-.18,0.79c0.07-.26.13-0.52,0.18-0.79S147.54,114.79,147.56,114.66Z"/><path class="cls-1" d="M196.11,129.07c0.13,0.06.24,0.15,0.36,0.22-0.12-.07-0.24-0.16-0.36-0.22l-9.23-4.4h0Z"/><path class="cls-1" d="M122.29,133.21a8.58,8.58,0,0,1-.16-1.38A8.58,8.58,0,0,0,122.29,133.21Z"/><path class="cls-1" d="M147.31,115.83a5.74,5.74,0,0,1-2.69,3.72h0A5.74,5.74,0,0,0,147.31,115.83Z"/><path class="cls-1" d="M144.62,119.55h0a7.05,7.05,0,0,1-.74.38c-0.92.41-1.83,0.84-2.75,1.25,0.92-.41,1.83-0.85,2.75-1.25A7.06,7.06,0,0,0,144.62,119.55Z"/><path class="cls-1" d="M144.62,119.55a7.06,7.06,0,0,1-.74.38,7.05,7.05,0,0,0,.74-0.38h0m-0.74.38h0m0,0c-0.91.4-1.82,0.83-2.73,1.24,0.91-.41,1.81-0.84,2.73-1.24"/><path class="cls-1" d="M175.56,119.33a6.71,6.71,0,0,0,1,.58A6.68,6.68,0,0,1,175.56,119.33Z"/><path class="cls-1" d="M175.56,119.33a6.71,6.71,0,0,0,1,.58,6.68,6.68,0,0,1-1-.58"/><path class="cls-1" d="M186.88,124.67l-0.51-.24,0.51,0.24h0Z"/><path class="cls-1" d="M186.38,124.43l0.51,0.24-0.51-.24"/><path class="cls-1" d="M200.83,132.91c-0.14-.08-0.26-0.17-0.41-0.24l-10.33-4.93-0.57-.27c-3.64-1.72-7.28-3.42-11-5.06a7.51,7.51,0,0,1-1.15-.64l-0.36-.25a6.09,6.09,0,0,1-.7-0.62,6,6,0,0,1-1.26-2,8.38,8.38,0,0,1-.42-1.62c0-.2-0.06-0.39-0.1-0.57l0-.17c0-.12-0.05-0.24-0.08-0.35s0-.12-0.06-0.18-0.06-.2-0.1-0.29-0.06-.11-0.09-0.17a2.2,2.2,0,0,0-.13-0.23c0-.05-0.08-0.09-0.12-0.14a1.64,1.64,0,0,0-.17-0.19,12.15,12.15,0,0,0-.38-0.24l-0.22-.07a2,2,0,0,0-.27-0.08l-0.28,0a3.34,3.34,0,0,0-.36,0h0c-0.19-2-.42-3.79-0.52-5.62a2.78,2.78,0,0,1,.06-0.68,7.22,7.22,0,0,1,.37-1.19c0.14-.35.28-0.7,0.42-1.05,0.82-2.08,1.65-4.15,2.48-6.22,0.13-.32.16-0.75,0.3-1a0.54,0.54,0,0,1,.18-0.22,4.69,4.69,0,0,0,1.69-2c0.77-1.61.69-3.53,1-5.28a2.56,2.56,0,0,0-.36-2,3.23,3.23,0,0,1-1.08-2.08,5.34,5.34,0,0,1,0-.56c0-.56,0-1.14.07-1.71s0.06-1.38.1-2.06c0.07-1.38.14-2.75,0.26-4.12,0.06-.69.13-1.37,0.21-2.05a8.42,8.42,0,0,0-1-5.21,11.27,11.27,0,0,0-1.39-2,4.41,4.41,0,0,1-.41-0.56,10.56,10.56,0,0,1-.88-1.95c-0.45-1.24-.89-2.49-1.33-3.78s-0.89-2.62-1.37-4a17.51,17.51,0,0,1-2.18,1.7,29.38,29.38,0,0,1-9.47,3.73c-3.23.83-6.54,1.35-9.74,2.29a9.23,9.23,0,0,0-6,5.09,8.9,8.9,0,0,0-.6,5c0.12,0.81.21,1.62,0.28,2.43,0.13,1.64.17,3.3,0.2,5,0,0.81,0,1.62.07,2.43a3.18,3.18,0,0,1-.13,1,2.25,2.25,0,0,1-.27.66,4.89,4.89,0,0,0-.64,2c0,0.2-.05.42-0.07,0.63,0,0.43-.05.89,0,1.35a13.61,13.61,0,0,0,.61,3.95c0.06,0.18.13,0.36,0.2,0.52a3.62,3.62,0,0,0,.48.82,12,12,0,0,1,1.09,1.63c0.33,0.57.62,1.17,0.89,1.76a8.94,8.94,0,0,1,.39,1,10.3,10.3,0,0,0,1.2,3,6.55,6.55,0,0,1,1,2.12c0.61,2.15.09,4.38,0,6.59a1.12,1.12,0,0,1-.13.39,1,1,0,0,1-.54.58c-1.46,0-1.53.94-1.67,1.9,0,0.14,0,.28-0.07.41-0.06.3-.13,0.6-0.2,0.89a6.43,6.43,0,0,1-3,4.16,7.9,7.9,0,0,1-.83.43c-1,.45-2,0.94-3.08,1.4-2.85,1.28-5.69,2.57-8.51,3.9q-4.8,2.27-9.57,4.61c-2.42,1.19-3.22,1.82-3.19,3.41a9.61,9.61,0,0,0,.18,1.54c0.07,0.4.17,0.85,0.28,1.36H202.4v-4.72C201.87,133.6,201.36,133.23,200.83,132.91Z"/><path class="cls-1" d="M172.7,113.74c0,0.05.06,0.1,0.08,0.15S172.72,113.79,172.7,113.74Z"/><path class="cls-1" d="M144.94,96.51A12.16,12.16,0,0,1,144.4,93,12.15,12.15,0,0,0,144.94,96.51Z"/><path class="cls-1" d="M172.86,114.14c0,0.05,0,.1.05,0.16S172.88,114.2,172.86,114.14Z"/><path class="cls-1" d="M171.3,112.86l0.25,0Z"/><path class="cls-1" d="M144.4,93c0-.41,0-0.82,0-1.21C144.4,92.16,144.39,92.57,144.4,93Z"/><path class="cls-1" d="M171.79,113L172,113Z"/><path class="cls-1" d="M172.47,113.4l0.11,0.13Z"/><path class="cls-1" d="M172.18,113.14l0.15,0.1Z"/><path class="cls-1" d="M147.67,101.65a9.2,9.2,0,0,0,1.07,2.66,5.86,5.86,0,0,1,.93,1.89,5.85,5.85,0,0,0-.93-1.89A9.2,9.2,0,0,1,147.67,101.65Z"/><path class="cls-1" d="M145.12,97a3.24,3.24,0,0,0,.43.73,10.76,10.76,0,0,1,1,1.46,10.76,10.76,0,0,0-1-1.46A3.24,3.24,0,0,1,145.12,97Z"/><path class="cls-1" d="M149.05,113a0.9,0.9,0,0,0,.48-0.52,0.9,0.9,0,0,1-.48.52c-1.3,0-1.37.84-1.5,1.7C147.68,113.8,147.75,113,149.05,113Z"/><path class="cls-1" d="M145.37,85.82c0,0.72,0,1.45.06,2.17a2.84,2.84,0,0,1-.12.86,2.84,2.84,0,0,0,.12-0.86C145.4,87.27,145.39,86.55,145.37,85.82Z"/><path class="cls-1" d="M145.47,74.8a8,8,0,0,0-.54,4.42c0.11,0.72.19,1.44,0.25,2.17-0.06-.73-0.14-1.45-0.25-2.17A8,8,0,0,1,145.47,74.8Z"/><path class="cls-1" d="M150.81,70.25c2.85-.84,5.81-1.3,8.7-2A26.25,26.25,0,0,0,168,64.87a26.25,26.25,0,0,1-8.46,3.33c-2.88.74-5.85,1.21-8.7,2a8.25,8.25,0,0,0-5.33,4.55A8.25,8.25,0,0,1,150.81,70.25Z"/><path class="cls-1" d="M175.24,119.11h0a5.44,5.44,0,0,1-.62-0.55A5.44,5.44,0,0,0,175.24,119.11Z"/><path class="cls-1" d="M125,128.79q4.26-2.09,8.55-4.12h0q-4.29,2-8.55,4.12c-2.17,1.07-2.87,1.63-2.85,3C122.1,130.41,122.81,129.85,125,128.79Z"/><path class="cls-1" d="M173,114.62l0,0.15Z"/><path class="cls-1" d="M197.88,134.42H122.53c-0.1-.45-0.18-0.85-0.25-1.21,0.07,0.36.15,0.76,0.25,1.21h75.35v-4.22c-0.47-.31-0.92-0.64-1.4-0.92,0.48,0.28.94,0.61,1.4,0.92v4.22Z"/><path class="cls-1" d="M173.49,116.73a5.33,5.33,0,0,0,1.13,1.82A5.33,5.33,0,0,1,173.49,116.73Z"/><path class="cls-1" d="M171.27,105.21c0.73-1.86,1.48-3.71,2.21-5.56,0.11-.28.14-0.67,0.27-0.92-0.12.25-.16,0.64-0.27,0.92C172.74,101.51,172,103.36,171.27,105.21Z"/><path class="cls-1" d="M173.11,72.06a9.45,9.45,0,0,1-.78-1.74c-0.4-1.11-.79-2.23-1.19-3.38,0.39,1.15.78,2.27,1.19,3.38A9.44,9.44,0,0,0,173.11,72.06Z"/><path class="cls-1" d="M171,112.84h0c-0.17-1.77-.38-3.39-0.46-5a2.48,2.48,0,0,1,.06-0.6,2.48,2.48,0,0,0-.06.6C170.6,109.45,170.8,111.07,171,112.84Z"/><path class="cls-1" d="M175.58,79c-0.07.61-.14,1.22-0.19,1.83,0.05-.61.11-1.22,0.19-1.83a7.52,7.52,0,0,0-.87-4.65A7.52,7.52,0,0,1,175.58,79Z"/><path class="cls-1" d="M176.35,92.06c-0.31,1.56-.24,3.28-0.93,4.72,0.69-1.44.62-3.16,0.93-4.72a2.29,2.29,0,0,0-.32-1.83,2.88,2.88,0,0,1-1-1.85,2.88,2.88,0,0,0,1,1.85A2.29,2.29,0,0,1,176.35,92.06Z"/><path class="cls-1" d="M175,87.88c0-.5,0-1,0.06-1.53s0.06-1.23.09-1.84c0,0.61-.06,1.23-0.09,1.84S175,87.38,175,87.88Z"/><path class="cls-1" d="M141.13,121.18c-2.54,1.14-5.08,2.3-7.61,3.49h0C136,123.48,138.59,122.32,141.13,121.18Z"/><path class="cls-1" d="M175.56,119.33l-0.32-.22h0Z"/><path class="cls-1" d="M160,185.63a86.74,86.74,0,1,1,86.74-86.74A86.84,86.84,0,0,1,160,185.63Zm0-169.24a82.5,82.5,0,1,0,82.5,82.5A82.59,82.59,0,0,0,160,16.39Z"/><path class="cls-1" d="M160,177.42a78.58,78.58,0,1,1,78.58-78.58A78.67,78.67,0,0,1,160,177.42Zm0-155.74a77.16,77.16,0,1,0,77.16,77.16A77.25,77.25,0,0,0,160,21.68Z"/><rect class="cls-1" x="230.48" y="98.18" width="28.13" height="1.42"/><rect class="cls-1" x="61.39" y="98.18" width="28.13" height="1.42"/></svg>