<svg id="Layer_1" data-name="Layer 1" xmlns="http://www.w3.org/2000/svg" viewBox="0 0 210.24 52.78"><defs><style>.cls-1{fill:#fff;}.cls-2,.cls-3{fill:none;stroke:#fff;stroke-miterlimit:10;}.cls-2{stroke-width:1.04px;}.cls-3{stroke-width:2.77px;}</style></defs><title>Poller_CIS</title><path class="cls-1" d="M54.89,17.83a0.7,0.7,0,0,1,.8-0.8h5.43a5.07,5.07,0,0,1,5.33,5.33,5.12,5.12,0,0,1-5.33,5.4H57.26v5.5a0.7,0.7,0,0,1-.8.8H55.69a0.7,0.7,0,0,1-.8-0.8V17.83Zm5.84,7.86A3.07,3.07,0,0,0,64,22.36a3,3,0,0,0-3.28-3.26h-3.5v6.59h3.47Z"/><path class="cls-1" d="M81.77,16.74a8.5,8.5,0,0,1,8.73,8.69,8.75,8.75,0,1,1-17.49,0A8.52,8.52,0,0,1,81.77,16.74Zm0,15.42c3.62,0,6.27-2.92,6.27-6.73a6.29,6.29,0,1,0-12.57,0C75.47,29.24,78.15,32.16,81.77,32.16Z"/><path class="cls-1" d="M98.58,17.83a0.7,0.7,0,0,1,.8-0.8h0.77a0.7,0.7,0,0,1,.8.8V32h6.85a0.71,0.71,0,0,1,.8.8v0.48a0.71,0.71,0,0,1-.8.8H99.37a0.7,0.7,0,0,1-.8-0.8V17.83Z"/><path class="cls-1" d="M115.71,17.83a0.7,0.7,0,0,1,.8-0.8h0.77a0.7,0.7,0,0,1,.8.8V32h6.85a0.71,0.71,0,0,1,.8.8v0.48a0.71,0.71,0,0,1-.8.8H116.5a0.7,0.7,0,0,1-.8-0.8V17.83Z"/><path class="cls-1" d="M132.83,17.83a0.7,0.7,0,0,1,.8-0.8h8.3a0.7,0.7,0,0,1,.8.8v0.48a0.71,0.71,0,0,1-.8.8H135.2v5.33h5.33a0.71,0.71,0,0,1,.8.8v0.48a0.71,0.71,0,0,1-.8.8H135.2V32h7.14a0.7,0.7,0,0,1,.8.8v0.48a0.7,0.7,0,0,1-.8.8h-8.71a0.7,0.7,0,0,1-.8-0.8V17.83Z"/><path class="cls-1" d="M151,17.83a0.7,0.7,0,0,1,.8-0.8h4.58a7.45,7.45,0,0,1,3.18.46A4.62,4.62,0,0,1,162.29,22a4.74,4.74,0,0,1-3,4.68v0a4.37,4.37,0,0,1,.51.77l3.06,5.67c0.31,0.55.07,0.94-.53,0.94h-1a0.94,0.94,0,0,1-.94-0.55l-3.33-6.22h-3.64v6a0.7,0.7,0,0,1-.8.8h-0.77a0.7,0.7,0,0,1-.8-0.8V17.83Zm5.79,7.38a2.91,2.91,0,0,0,3-3.16,2.69,2.69,0,0,0-1.59-2.65,4.74,4.74,0,0,0-2-.29h-2.85v6.1h3.43Z"/><path class="cls-1" d="M170.08,32.33a0.7,0.7,0,0,1,.8-0.8h0.92a0.7,0.7,0,0,1,.8.8v0.94a0.7,0.7,0,0,1-.8.8h-0.92a0.7,0.7,0,0,1-.8-0.8V32.33Z"/><path class="cls-1" d="M184.94,17.68a0.84,0.84,0,0,1,.89-0.65H187a0.85,0.85,0,0,1,.89.65l5.6,15.46a0.62,0.62,0,0,1-.65.92H192a0.86,0.86,0,0,1-.89-0.65l-1.52-4.25h-6.42l-1.5,4.25a0.83,0.83,0,0,1-.87.65H180a0.62,0.62,0,0,1-.65-0.92Zm4,9.5-1.88-5.4c-0.29-.87-0.65-2.41-0.65-2.41h0s-0.39,1.54-.68,2.41l-1.91,5.4H189Z"/><path class="cls-1" d="M200.88,17.83a0.7,0.7,0,0,1,.8-0.8h0.77a0.7,0.7,0,0,1,.8.8V33.27a0.7,0.7,0,0,1-.8.8h-0.77a0.7,0.7,0,0,1-.8-0.8V17.83Z"/><line class="cls-2" x1="26.91" y1="10.73" x2="26.91" y2="21.23"/><polygon class="cls-2" points="6.58 28.69 26.91 21.36 26.91 10.73 6.58 3.28 6.58 28.69"/><circle class="cls-2" cx="33.83" cy="16.34" r="1.57"/><polyline class="cls-2" points="11 20.22 9.3 20.22 9.3 12.43 11 12.43"/><path class="cls-1" d="M13.49,5.81V26.25l5.64-2.09V7.87Zm2.89,16.63a1,1,0,1,1,1-1A1,1,0,0,1,16.38,22.44Zm0-10.48a1,1,0,1,1,1-1A1,1,0,0,1,16.38,12Z"/><rect class="cls-1" x="29.08" y="13.63" width="1.09" height="5.42" transform="translate(45.96 -13.28) rotate(90)"/><line class="cls-3" x1="1.38" x2="1.38" y2="52.78"/></svg>