<svg id="Layer_1" data-name="Layer 1" xmlns="http://www.w3.org/2000/svg" viewBox="0 0 230 230"><defs><style>.cls-1{fill:#709eba;}.cls-2{fill:#fff;}.cls-3,.cls-4{fill:none;stroke:#fff;stroke-miterlimit:10;}.cls-3{stroke-width:1.5px;}.cls-4{stroke-width:4px;}</style></defs><title>Poller_FB</title><circle class="cls-1" cx="115" cy="115" r="115"/><path class="cls-2" d="M65.3,157.52a0.41,0.41,0,0,1,.46-0.46h3.15A2.94,2.94,0,0,1,72,160.15a3,3,0,0,1-3.09,3.13H66.68v3.19a0.41,0.41,0,0,1-.46.46H65.77a0.41,0.41,0,0,1-.46-0.46v-9Zm3.39,4.56a1.78,1.78,0,0,0,1.92-1.93,1.75,1.75,0,0,0-1.9-1.89h-2v3.82h2Z"/><path class="cls-2" d="M82.42,156.89a4.93,4.93,0,0,1,5.07,5,5.07,5.07,0,1,1-10.14,0A4.94,4.94,0,0,1,82.42,156.89Zm0,8.94a3.69,3.69,0,0,0,3.64-3.9,3.65,3.65,0,1,0-7.29,0A3.7,3.7,0,0,0,82.42,165.83Z"/><path class="cls-2" d="M93.71,157.52a0.41,0.41,0,0,1,.46-0.46h0.45a0.41,0.41,0,0,1,.46.46v8.21h4a0.41,0.41,0,0,1,.46.46v0.28a0.41,0.41,0,0,1-.46.46H94.17a0.41,0.41,0,0,1-.46-0.46v-9Z"/><path class="cls-2" d="M105.18,157.52a0.41,0.41,0,0,1,.46-0.46h0.45a0.41,0.41,0,0,1,.46.46v8.21h4a0.41,0.41,0,0,1,.46.46v0.28a0.41,0.41,0,0,1-.46.46h-4.88a0.41,0.41,0,0,1-.46-0.46v-9Z"/><path class="cls-2" d="M116.65,157.52a0.41,0.41,0,0,1,.46-0.46h4.81a0.41,0.41,0,0,1,.46.46v0.28a0.41,0.41,0,0,1-.46.46H118v3.09h3.09a0.41,0.41,0,0,1,.46.46v0.28a0.41,0.41,0,0,1-.46.46H118v3.18h4.14a0.41,0.41,0,0,1,.46.46v0.28a0.41,0.41,0,0,1-.46.46h-5.05a0.41,0.41,0,0,1-.46-0.46v-9Z"/><path class="cls-2" d="M128.74,157.52a0.41,0.41,0,0,1,.46-0.46h2.66a4.32,4.32,0,0,1,1.85.27,2.68,2.68,0,0,1,1.55,2.59,2.75,2.75,0,0,1-1.76,2.71v0a2.59,2.59,0,0,1,.29.45l1.78,3.29c0.18,0.32,0,.55-0.31.55H134.7a0.54,0.54,0,0,1-.54-0.32L132.23,163h-2.11v3.47a0.41,0.41,0,0,1-.46.46H129.2a0.41,0.41,0,0,1-.46-0.46v-9Zm3.36,4.28a1.69,1.69,0,0,0,1.76-1.83,1.56,1.56,0,0,0-.92-1.54,2.76,2.76,0,0,0-1.18-.17h-1.65v3.54h2Z"/><path class="cls-2" d="M141.31,165.93a0.41,0.41,0,0,1,.46-0.46h0.53a0.41,0.41,0,0,1,.46.46v0.55a0.41,0.41,0,0,1-.46.46h-0.53a0.41,0.41,0,0,1-.46-0.46v-0.55Z"/><path class="cls-2" d="M151.47,157.43a0.49,0.49,0,0,1,.52-0.38h0.67a0.5,0.5,0,0,1,.52.38l3.25,9a0.36,0.36,0,0,1-.38.53h-0.48a0.5,0.5,0,0,1-.52-0.38l-0.88-2.46h-3.72l-0.87,2.46a0.48,0.48,0,0,1-.5.38H148.6a0.36,0.36,0,0,1-.38-0.53Zm2.34,5.51-1.09-3.13c-0.17-.5-0.38-1.4-0.38-1.4h0s-0.22.9-.39,1.4l-1.11,3.13h3Z"/><path class="cls-2" d="M162.25,157.52a0.41,0.41,0,0,1,.46-0.46h0.45a0.41,0.41,0,0,1,.46.46v9a0.41,0.41,0,0,1-.46.46h-0.45a0.41,0.41,0,0,1-.46-0.46v-9Z"/><polygon class="cls-2" points="123.14 101.97 123.14 78.44 115 75.46 115 104.98 123.14 101.97"/><line class="cls-3" x1="134.38" y1="82.57" x2="134.38" y2="97.74"/><polygon class="cls-3" points="105.02 108.5 134.38 97.91 134.38 82.56 105.02 71.8 105.02 108.5"/><circle class="cls-3" cx="144.37" cy="90.66" r="2.26"/><polyline class="cls-3" points="111.4 96.27 108.96 96.27 108.96 85.01 111.4 85.01"/><circle class="cls-1" cx="119.17" cy="82.92" r="1.43"/><circle class="cls-1" cx="119.17" cy="98.06" r="1.43"/><rect class="cls-2" x="137.52" y="86.75" width="1.57" height="7.83" transform="translate(228.96 -47.64) rotate(90)"/><line class="cls-4" x1="97.52" y1="67.07" x2="97.52" y2="143.3"/><path class="cls-2" d="M119.51,76.12s2.3-2.37,2.11-3.07a2.8,2.8,0,0,1,2.79-3.43,1.62,1.62,0,0,0-.87,2.23,2.17,2.17,0,0,1-.88,2.93,13,13,0,0,1-3,1.52l-0.19-.12"/><path class="cls-2" d="M119.87,76.65s-2.3-4.07-.58-6.24a4,4,0,0,0,.77-1.17s-2.85.26-3.21,2.78c-0.32,2.32.62,2.76,0.79,2.82a7.72,7.72,0,0,1,1.76,1.45,0.64,0.64,0,0,0,.29.38Z"/><rect class="cls-2" x="118.26" y="74.68" width="2.48" height="2.48" rx="0.74" ry="0.74" transform="translate(30.85 -34.47) rotate(18.81)"/></svg>